<svg id="british-columbia-institute-of-technology-bcit-seeklogo.com" xmlns="http://www.w3.org/2000/svg" width="184.729" height="56.096" viewBox="0 0 184.729 56.096">
  <path id="Path_8249" data-name="Path 8249" d="M232.7,300.859V292.7h2.032c1.878,0,2.709.616,2.709,2.124a1.725,1.725,0,0,1-1.047,1.724v.031a1.838,1.838,0,0,1,1.262,1.94c0,1.878-1.232,2.34-2.8,2.34m-.092-4.772c.677,0,1.293-.246,1.293-1.139,0-.862-.647-1.047-1.293-1.047h-.739v2.186Zm.154,3.571c.954,0,1.355-.339,1.355-1.232s-.462-1.262-1.355-1.262h-.893v2.463h.893Z" transform="translate(-168.753 -274.566)" fill="#00467f"/>
  <path id="Path_8250" data-name="Path 8250" d="M256.571,300.859,255.4,297.5h-1.047v3.356H253V292.7h2.155c1.755,0,2.586.677,2.586,2.278a2,2,0,0,1-1.139,2l1.416,3.91m-2.863-4.557a1.115,1.115,0,0,0,1.262-1.262c0-1.139-.647-1.232-1.262-1.232h-.77v2.494Z" transform="translate(-182.803 -274.566)" fill="#00467f"/>
  <rect id="Rectangle_1235" data-name="Rectangle 1235" width="1.355" height="8.159" transform="translate(76.385 18.134)" fill="#00467f"/>
  <path id="Path_8251" data-name="Path 8251" d="M282.793,300.859v-6.927H281.1V292.7h4.711v1.232h-1.693v6.927" transform="translate(-202.252 -274.566)" fill="#00467f"/>
  <rect id="Rectangle_1236" data-name="Rectangle 1236" width="1.355" height="8.159" transform="translate(84.667 18.134)" fill="#00467f"/>
  <path id="Path_8252" data-name="Path 8252" d="M311.579,294.578c-.185-.708-.462-1.139-1.108-1.139-.585,0-.924.308-.924.831,0,1.693,3.356,1.509,3.356,4.187a2.125,2.125,0,0,1-2.4,2.217c-1.447,0-2.124-.708-2.4-2.186l1.262-.216c.154.831.462,1.262,1.2,1.262a.939.939,0,0,0,1.047-.985c0-1.786-3.325-1.57-3.325-4.187a1.975,1.975,0,0,1,2.186-2.063,2.13,2.13,0,0,1,2.278,2.032" transform="translate(-220.939 -274.289)" fill="#00467f"/>
  <path id="Path_8253" data-name="Path 8253" d="M331.464,300.859v-3.6h-2.309v3.6H327.8V292.7h1.355v3.325h2.309V292.7h1.324v8.159" transform="translate(-234.574 -274.566)" fill="#00467f"/>
  <path id="Path_8254" data-name="Path 8254" d="M360.08,298c-.246,1.817-1.016,2.771-2.494,2.771-1.94,0-2.586-1.6-2.586-4.218,0-2.371.677-4.156,2.617-4.156,1.57,0,2.186.985,2.4,2.648l-1.262.123c-.185-1.047-.523-1.539-1.139-1.539-.831,0-1.262.862-1.262,2.956,0,2.278.369,3.017,1.262,3.017.647,0,1.047-.585,1.2-1.693" transform="translate(-253.399 -274.358)" fill="#00467f"/>
  <path id="Path_8255" data-name="Path 8255" d="M374.7,296.587c0-2.709.77-4.187,2.709-4.187,1.909,0,2.709,1.478,2.709,4.187,0,2.679-.831,4.187-2.709,4.187s-2.709-1.509-2.709-4.187m4.033,0c0-2.124-.431-3.017-1.324-3.017-.862,0-1.324.893-1.324,3.017,0,2.217.493,3.017,1.324,3.017.862,0,1.324-.831,1.324-3.017" transform="translate(-267.034 -274.358)" fill="#00467f"/>
  <path id="Path_8256" data-name="Path 8256" d="M396.6,300.859V292.7h1.355v6.927h2.74v1.232" transform="translate(-282.192 -274.566)" fill="#00467f"/>
  <path id="Path_8257" data-name="Path 8257" d="M416.664,292.7h1.324v5.573c0,1.755-.77,2.709-2.525,2.709S413,300.058,413,298.273V292.7h1.355v5.757c0,.954.339,1.355,1.139,1.355.77,0,1.17-.4,1.17-1.355" transform="translate(-293.542 -274.566)" fill="#00467f"/>
  <path id="Path_8258" data-name="Path 8258" d="M439.472,300.859v-6h-.031l-1.478,6h-.954l-1.478-6H435.5v6h-1.2V292.7h1.847l1.324,5.48h.031l1.385-5.48h1.786v8.159" transform="translate(-308.284 -274.566)" fill="#00467f"/>
  <path id="Path_8259" data-name="Path 8259" d="M460.3,300.859V292.7h2.032c1.878,0,2.709.616,2.709,2.124a1.725,1.725,0,0,1-1.047,1.724v.031a1.838,1.838,0,0,1,1.262,1.94c0,1.878-1.232,2.34-2.8,2.34m-.092-4.772c.708,0,1.293-.246,1.293-1.139,0-.862-.647-1.047-1.293-1.047h-.77v2.186Zm.154,3.571c.954,0,1.355-.339,1.355-1.232s-.462-1.262-1.355-1.262h-.893v2.463h.893Z" transform="translate(-326.28 -274.566)" fill="#00467f"/>
  <rect id="Rectangle_1237" data-name="Rectangle 1237" width="1.355" height="8.159" transform="translate(140.301 18.134)" fill="#00467f"/>
  <path id="Path_8260" data-name="Path 8260" d="M492.787,300.859l-.431-2.094h-1.97l-.431,2.094H488.6l1.847-8.159h1.816l1.909,8.159m-3.541-3.294h1.478l-.739-3.571h-.031Z" transform="translate(-345.867 -274.566)" fill="#00467f"/>
  <rect id="Rectangle_1238" data-name="Rectangle 1238" width="1.355" height="8.19" transform="translate(63.947 29.095)" fill="#00467f"/>
  <path id="Path_8261" data-name="Path 8261" d="M246.149,336.459l-2.617-5.634H243.5v5.634h-1.2V328.3h1.57l2.217,4.957h.031V328.3h1.232v8.159" transform="translate(-175.398 -299.205)" fill="#00467f"/>
  <path id="Path_8262" data-name="Path 8262" d="M265.879,330.248c-.185-.708-.462-1.139-1.108-1.139-.585,0-.924.308-.924.831,0,1.693,3.356,1.509,3.356,4.187a2.125,2.125,0,0,1-2.4,2.217c-1.447,0-2.155-.708-2.4-2.186l1.262-.216c.154.831.462,1.262,1.2,1.262a.917.917,0,0,0,1.047-.954c0-1.786-3.294-1.6-3.294-4.187A1.975,1.975,0,0,1,264.8,328a2.13,2.13,0,0,1,2.278,2.032" transform="translate(-189.309 -298.998)" fill="#00467f"/>
  <path id="Path_8263" data-name="Path 8263" d="M282.193,336.459V329.5H280.5v-1.2h4.711v1.2h-1.693v6.958" transform="translate(-201.836 -299.205)" fill="#00467f"/>
  <rect id="Rectangle_1239" data-name="Rectangle 1239" width="1.355" height="8.19" transform="translate(84.482 29.095)" fill="#00467f"/>
  <path id="Path_8264" data-name="Path 8264" d="M309.063,336.459V329.5H307.4v-1.2h4.711v1.2h-1.693v6.958" transform="translate(-220.454 -299.205)" fill="#00467f"/>
  <path id="Path_8265" data-name="Path 8265" d="M329.864,328.3h1.324v5.573c0,1.755-.77,2.709-2.525,2.709s-2.463-.954-2.463-2.709V328.3h1.355v5.757c0,.954.339,1.355,1.139,1.355.77,0,1.17-.4,1.17-1.355" transform="translate(-233.466 -299.205)" fill="#00467f"/>
  <path id="Path_8266" data-name="Path 8266" d="M347.593,336.459V329.5H345.9v-1.2h4.711v1.2h-1.663v6.958" transform="translate(-247.101 -299.205)" fill="#00467f"/>
  <path id="Path_8267" data-name="Path 8267" d="M364.8,336.459V328.3h4.187v1.2h-2.833v2.155h2.124v1.17h-2.124v2.4h2.986v1.232" transform="translate(-260.182 -299.205)" fill="#00467f"/>
  <path id="Path_8268" data-name="Path 8268" d="M388.3,332.087c0-2.709.8-4.187,2.709-4.187s2.709,1.478,2.709,4.187c0,2.679-.831,4.187-2.709,4.187s-2.709-1.509-2.709-4.187m4.033,0c0-2.124-.431-3.017-1.324-3.017-.862,0-1.324.893-1.324,3.017,0,2.217.493,3.048,1.324,3.048.862,0,1.324-.831,1.324-3.048" transform="translate(-276.447 -298.928)" fill="#00467f"/>
  <path id="Path_8269" data-name="Path 8269" d="M410.2,336.459V328.3h4.249v1.2h-2.894v2.155h2.155v1.17h-2.155v3.633" transform="translate(-291.604 -299.205)" fill="#00467f"/>
  <path id="Path_8270" data-name="Path 8270" d="M433.993,336.459V329.5H432.3v-1.2h4.711v1.2h-1.693v6.958" transform="translate(-306.9 -299.205)" fill="#00467f"/>
  <path id="Path_8271" data-name="Path 8271" d="M451.2,336.459V328.3h4.156v1.2h-2.8v2.155h2.094v1.17h-2.094v2.4h2.956v1.232" transform="translate(-319.981 -299.205)" fill="#00467f"/>
  <path id="Path_8272" data-name="Path 8272" d="M472.98,333.5c-.246,1.817-1.016,2.771-2.494,2.771-1.94,0-2.586-1.6-2.586-4.218,0-2.371.677-4.156,2.617-4.156,1.57,0,2.186.985,2.4,2.648l-1.262.123c-.185-1.047-.523-1.539-1.139-1.539-.831,0-1.262.893-1.262,2.956,0,2.278.369,3.048,1.262,3.048.647,0,1.047-.585,1.2-1.693" transform="translate(-331.54 -298.928)" fill="#00467f"/>
  <path id="Path_8273" data-name="Path 8273" d="M491.964,336.459v-3.633h-2.309v3.633H488.3V328.3h1.355v3.325h2.309V328.3h1.355v8.159" transform="translate(-345.659 -299.205)" fill="#00467f"/>
  <path id="Path_8274" data-name="Path 8274" d="M513.649,336.459l-2.617-5.634H511v5.634h-1.2V328.3h1.57l2.248,4.957h0V328.3h1.232v8.159" transform="translate(-360.539 -299.205)" fill="#00467f"/>
  <path id="Path_8275" data-name="Path 8275" d="M530.6,332.087c0-2.709.77-4.187,2.709-4.187,1.909,0,2.709,1.478,2.709,4.187,0,2.679-.831,4.187-2.709,4.187-1.909,0-2.709-1.509-2.709-4.187m4,0c0-2.124-.431-3.017-1.324-3.017-.862,0-1.324.893-1.324,3.017,0,2.217.493,3.048,1.324,3.048.862,0,1.324-.831,1.324-3.048" transform="translate(-374.935 -298.928)" fill="#00467f"/>
  <path id="Path_8276" data-name="Path 8276" d="M552.4,336.459V328.3h1.355v6.927h2.74v1.232" transform="translate(-390.024 -299.205)" fill="#00467f"/>
  <path id="Path_8277" data-name="Path 8277" d="M567.9,332.087c0-2.709.8-4.187,2.709-4.187s2.709,1.478,2.709,4.187c0,2.679-.831,4.187-2.709,4.187s-2.709-1.509-2.709-4.187m4.033,0c0-2.124-.431-3.017-1.324-3.017-.862,0-1.324.893-1.324,3.017,0,2.217.493,3.048,1.324,3.048.862,0,1.324-.831,1.324-3.048" transform="translate(-400.752 -298.928)" fill="#00467f"/>
  <path id="Path_8278" data-name="Path 8278" d="M592.933,336.113v-.677h0a1.83,1.83,0,0,1-1.632.77c-1.57,0-2.4-1.2-2.4-4.218,0-2.4.739-4.187,2.679-4.187,1.6,0,2.217,1.047,2.432,2.617l-1.262.123c-.185-.985-.523-1.509-1.17-1.509-.862,0-1.324.831-1.324,2.956,0,2.155.339,3.017,1.324,3.017.77,0,1.2-.616,1.2-1.478v-.4h-1.2v-1.108h2.432v4.064" transform="translate(-415.286 -298.859)" fill="#00467f"/>
  <path id="Path_8279" data-name="Path 8279" d="M611.4,328.3l-1.293,3.294h-.031l-1.232-3.294H607.4l2.032,4.865v3.294h1.355v-3.294l2.032-4.865h0" transform="translate(-428.09 -299.205)" fill="#00467f"/>
  <rect id="Rectangle_1240" data-name="Rectangle 1240" width="56.096" height="56.096" transform="translate(0 0)" fill="#003e6b"/>
  <path id="Path_8280" data-name="Path 8280" d="M43.5,311.635V292.3h4.772c4.4,0,6.435,1.447,6.435,5.018a4.133,4.133,0,0,1-2.494,4.095v.062c2.186.77,2.956,2.432,2.956,4.618,0,4.464-2.894,5.542-6.65,5.542m-.123-11.3c1.632,0,3.11-.585,3.11-2.709,0-2.063-1.539-2.432-3.11-2.432H46.61v5.172H48.4ZM48.7,308.8c2.248,0,3.2-.77,3.2-2.894,0-2.094-1.078-2.956-3.171-2.956H46.61v5.85Z" transform="translate(-37.804 -274.289)" fill="#fff"/>
  <path id="Path_8281" data-name="Path 8281" d="M99.838,304.87c-.585,4.31-2.4,6.527-5.911,6.527-4.618,0-6.127-3.756-6.127-9.975,0-5.573,1.6-9.821,6.188-9.821,3.725,0,5.2,2.309,5.665,6.25l-2.956.277c-.4-2.432-1.232-3.664-2.648-3.664-1.97,0-2.986,2.063-2.986,6.958,0,5.357.893,7.143,2.956,7.143,1.539,0,2.463-1.355,2.863-4" transform="translate(-68.465 -273.805)" fill="#fff"/>
  <rect id="Rectangle_1241" data-name="Rectangle 1241" width="3.202" height="19.335" transform="translate(34.082 18.042)" fill="#fff"/>
  <path id="Path_8282" data-name="Path 8282" d="M158.6,311.7v-16.41h-4V292.4h11.145v2.894h-3.972V311.7" transform="translate(-114.699 -274.358)" fill="#fff"/>
  <path id="Path_8283" data-name="Path 8283" d="M209.731,239.895v-3.387H208.9V235.8h2.4v.708h-.831v3.387m3.91,0v-2.833h-.031l-.647,2.833h-.585l-.647-2.833h-.031v2.833h-.708V235.8h1.078l.585,2.555h.031l.616-2.555h1.047v4.095Z" transform="translate(-152.281 -235.184)" fill="#003e6b"/>
</svg>
