<svg width="30" height="31" viewBox="0 0 30 31" fill="none" xmlns="http://www.w3.org/2000/svg">
<path d="M0 15.5C0 23.5789 6.54609 30.125 14.625 30.125C22.7039 30.125 29.25 23.5789 29.25 15.5C29.25 7.42109 22.7039 0.875 14.625 0.875C6.54609 0.875 0 7.42109 0 15.5ZM17.1914 15.5L11.4328 9.79766C10.9055 9.27031 10.9055 8.40547 11.4328 7.87813C11.9602 7.35078 12.825 7.35078 13.3523 7.87813L20.0602 14.607C20.5734 15.1203 20.5875 15.95 20.1023 16.4773L13.493 23.1078C13.2258 23.375 12.8813 23.5086 12.5297 23.5086C12.1852 23.5086 11.8336 23.375 11.5734 23.1148C11.0461 22.5875 11.0391 21.7297 11.5734 21.1953L17.1914 15.5Z" fill="#EF0F50"/>
</svg>
