<svg xmlns="http://www.w3.org/2000/svg" width="19" height="13.694" viewBox="0 0 19 13.694">
  <g id="envelope" transform="translate(-26.67 -90.67)">
    <path id="Path_3" data-name="Path 3" d="M43.236,104.364H29.1a2.439,2.439,0,0,1-2.43-2.43V93.1a2.439,2.439,0,0,1,2.43-2.43H43.24a2.439,2.439,0,0,1,2.43,2.43v8.837a2.439,2.439,0,0,1-2.434,2.427ZM29.1,91.992a1.1,1.1,0,0,0-1.1,1.1v8.837a1.1,1.1,0,0,0,1.1,1.1H43.236a1.1,1.1,0,0,0,1.1-1.1V93.1a1.1,1.1,0,0,0-1.1-1.1H29.1Z" fill="#ef0f50"/>
    <path id="Path_4" data-name="Path 4" d="M36.41,170.707a2.872,2.872,0,0,1-1.458-.4l-7.715-4.586a.672.672,0,0,1-.239-.884.654.654,0,0,1,.884-.23l7.724,4.578a1.493,1.493,0,0,0,1.555,0l7.724-4.578a.654.654,0,0,1,.884.23.672.672,0,0,1-.239.884l-7.662,4.587a2.872,2.872,0,0,1-1.458.4Z" transform="translate(-0.244 -70.798)" fill="#ef0f50"/>
  </g>
</svg>
