<svg width="27" height="27" viewBox="0 0 27 27" fill="none" xmlns="http://www.w3.org/2000/svg">
<path d="M22.8282 0H3.55526C1.59178 0 0 1.59172 0 3.55527V22.8284C0 24.792 1.59172 26.3837 3.55526 26.3837H13.0606L13.0768 16.9556H10.6274C10.3091 16.9556 10.0507 16.6982 10.0495 16.3799L10.0377 13.3408C10.0365 13.0207 10.2956 12.7606 10.6157 12.7606H13.0607V9.82413C13.0607 6.41634 15.1419 4.56076 18.1819 4.56076H20.6764C20.9956 4.56076 21.2544 4.81951 21.2544 5.13873V7.70129C21.2544 8.02039 20.9958 8.27907 20.6767 8.27926L19.1459 8.27997C17.4927 8.27997 17.1725 9.06557 17.1725 10.2185V12.7607H20.8052C21.1514 12.7607 21.4199 13.063 21.3791 13.4067L21.0189 16.4458C20.9845 16.7366 20.7379 16.9557 20.445 16.9557H17.1887L17.1725 26.3838H22.8284C24.7918 26.3838 26.3836 24.7921 26.3836 22.8286V3.55527C26.3835 1.59172 24.7918 0 22.8282 0Z" fill="#475993"/>
</svg>
