<svg width="27" height="27" viewBox="0 0 27 27" fill="none" xmlns="http://www.w3.org/2000/svg">
<path d="M5.85133 15.9554L4.9323 19.3862L1.57326 19.4573C0.569405 17.5953 0 15.4651 0 13.2012C0 11.0121 0.53238 8.94781 1.47606 7.13013L4.46727 7.67838L5.77728 10.6509C5.5031 11.4503 5.35365 12.3083 5.35365 13.2012C5.35376 14.1703 5.52929 15.0988 5.85133 15.9554Z" fill="#FBBB00"/>
<path d="M26.1715 10.7349C26.3232 11.5334 26.4022 12.3581 26.4022 13.201C26.4022 14.1461 26.3028 15.0681 26.1135 15.9573C25.4709 18.9835 23.7917 21.6259 21.4655 23.4958L21.4648 23.4951L17.6982 23.3029L17.1651 19.975C18.7086 19.0698 19.9148 17.6532 20.5503 15.9573H13.4912V10.7349H20.6533H26.1715Z" fill="#518EF8"/>
<path d="M21.465 23.4953C19.2027 25.3137 16.3296 26.4024 13.2012 26.4024C8.17384 26.4024 3.80296 23.5924 1.57324 19.4572L5.85131 15.9553C6.96614 18.9307 9.83632 21.0486 13.2012 21.0486C14.6475 21.0486 16.0025 20.6577 17.1652 19.9751L21.465 23.4953Z" fill="#28B446"/>
<path d="M21.6275 3.03917L17.3509 6.54039C16.1476 5.78823 14.7251 5.35372 13.2012 5.35372C9.76019 5.35372 6.83633 7.5689 5.77735 10.6509L1.4768 7.13011C3.67387 2.89411 8.09916 0 13.2012 0C16.4043 0 19.3412 1.14098 21.6275 3.03917Z" fill="#F14336"/>
</svg>
