<svg xmlns="http://www.w3.org/2000/svg" width="119.598" height="91" viewBox="0 0 119.598 91">
  <g id="graduation-cap_1_" data-name="graduation-cap (1)" transform="translate(0 -41.75)">
    <g id="Group_5181" data-name="Group 5181" transform="translate(0 41.75)">
      <path id="Path_8569" data-name="Path 8569" d="M115.625,66.581,67.95,43.291c-4.11-2.055-11.1-2.055-15.207,0L3.973,66.581C.548,68.225,0,70.554,0,71.786s.548,3.425,3.973,5.206L7.946,78.91V100.83A6.713,6.713,0,0,0,3.7,106.995a6.8,6.8,0,0,0,4.11,6.165L1.644,132.75H18.906l-6.165-19.59a6.638,6.638,0,0,0-.137-12.33V81.239L19.865,84.8v28.5a2.21,2.21,0,0,0,.411,1.233c.685.822,13.426,18.221,39.455,18.221s38.77-17.536,39.318-18.221a2.21,2.21,0,0,0,.411-1.233V84.938l16.166-7.946c3.425-1.644,3.973-3.973,3.973-5.206C119.461,70.554,119.05,68.225,115.625,66.581ZM95.076,112.611A45.812,45.812,0,0,1,59.731,128.5a45.812,45.812,0,0,1-35.345-15.892V86.719l28.358,13.563a18.475,18.475,0,0,0,7.535,1.507,16.682,16.682,0,0,0,7.672-1.644L95.076,86.856Zm18.632-39.455-16.44,8.083a1.574,1.574,0,0,0-1.507.822L66.032,96.446c-2.877,1.507-8.494,1.507-11.508,0L17.947,78.91,60,73.978a2.133,2.133,0,0,0-.411-4.247L10.823,75.485,5.891,73.156a2.763,2.763,0,0,1-1.507-1.233c0-.137.274-.685,1.507-1.233L54.662,47.264a14.152,14.152,0,0,1,5.617-1.1,13.886,13.886,0,0,1,5.754,1.1l47.675,23.289c1.233.548,1.507,1.1,1.507,1.37A3.767,3.767,0,0,1,113.707,73.156Z" transform="translate(0 -41.75)" fill="#ef0f50"/>
    </g>
  </g>
</svg>
