<svg xmlns="http://www.w3.org/2000/svg" width="39.188" height="31.024" viewBox="0 0 39.188 31.024">
  <path id="Path_8074" data-name="Path 8074" d="M33.473,58.232h-4.9a.814.814,0,0,1-.774-.558l-.516-1.548a4.077,4.077,0,0,0-3.873-2.792H15.777a4.074,4.074,0,0,0-3.871,2.791l-.516,1.55a.818.818,0,0,1-.776.558h-4.9A5.721,5.721,0,0,0,0,63.947v14.7a5.721,5.721,0,0,0,5.715,5.715H33.474a5.721,5.721,0,0,0,5.715-5.715v-14.7A5.721,5.721,0,0,0,33.473,58.232Zm4.082,20.411a4.088,4.088,0,0,1-4.082,4.082H5.715a4.088,4.088,0,0,1-4.082-4.082v-14.7a4.088,4.088,0,0,1,4.082-4.082h4.9a2.448,2.448,0,0,0,2.324-1.674l.518-1.551a2.444,2.444,0,0,1,2.322-1.674h7.635a2.447,2.447,0,0,1,2.324,1.675l.516,1.55a2.448,2.448,0,0,0,2.324,1.674h4.9a4.088,4.088,0,0,1,4.082,4.082v14.7Z" transform="translate(0 -53.333)" fill="#ef0f50"/>
</svg>
