<svg xmlns="http://www.w3.org/2000/svg" width="20.069" height="19.56" viewBox="0 0 20.069 19.56">
  <path id="Icon_awesome-arrow-left" data-name="Icon awesome-arrow-left" d="M11.533,20.9l-.994.994a1.071,1.071,0,0,1-1.518,0l-8.708-8.7a1.071,1.071,0,0,1,0-1.518L9.02,2.963a1.071,1.071,0,0,1,1.518,0l.994.994a1.076,1.076,0,0,1-.018,1.536l-5.4,5.142H18.99a1.072,1.072,0,0,1,1.075,1.075v1.433a1.072,1.072,0,0,1-1.075,1.075H6.117l5.4,5.142A1.068,1.068,0,0,1,11.533,20.9Z" transform="translate(0.004 -2.647)" fill="#ef0f50"/>
</svg>
