<svg id="stanford-university-seeklogo.com" xmlns="http://www.w3.org/2000/svg" width="122.732" height="54.627" viewBox="0 0 122.732 54.627">
  <path id="Path_8284" data-name="Path 8284" d="M53.216,213.226c-4.377,0-4.724-3.334-4.724-4.315a4.321,4.321,0,0,1,3.109-4.377c2.843-1.043,3.456-1.166,5.481-1.8v-.491a4.1,4.1,0,0,0-.225-1.8,2.9,2.9,0,0,0-2.986-1.882,3.593,3.593,0,0,0-3.272,2.025l-.818-.491c.491-1.8,2.352-3.6,5.542-3.6,2.209,0,3.743.634,4.643,2.025a8.25,8.25,0,0,1,.757,4.172c0,1.391-.082,2.925-.082,4.172,0,.818-.082,1.616-.082,2.066,0,1.125.225,2.025,1.125,2.025.409,0,.491-.143.818-.348l.491.634a4.08,4.08,0,0,1-3.415,2.025,2.508,2.508,0,0,1-2.516-1.657A4.749,4.749,0,0,1,53.216,213.226Zm3.865-8.488a17.628,17.628,0,0,0-3.538,1.309,2.6,2.6,0,0,0-1.391,2.557,2.171,2.171,0,0,0,2.434,2.352,4.564,4.564,0,0,0,2.556-.757v-5.481h-.061Zm-36.138,7.629c0-1.616,0-2.986-.143-4.643h.982a3.117,3.117,0,0,0,.757,2.291,5.519,5.519,0,0,0,3.743,1.248c3.047,0,4.5-1.166,4.5-3.681,0-2.147-1.309-3.047-3.109-4.315l-.266-.225-1.943-1.309c-2.7-1.8-4.09-3.191-4.09-6.033,0-1.391.552-5.972,7.281-5.972a43.3,43.3,0,0,1,5.277.409c0,.225-.082,1.248-.082,2.147,0,1.043,0,1.309.082,2.556h-.818a3.077,3.077,0,0,0-.818-2.291,5.525,5.525,0,0,0-3.6-.982c-3.6,0-4.009,1.8-4.009,3.191,0,1.882.982,2.556,3.109,3.947l2.434,1.616c2.066,1.391,4.009,2.7,4.009,6.176,0,5.829-5.481,6.442-7.772,6.442A11.806,11.806,0,0,1,20.943,212.367ZM64.506,197.54a12.776,12.776,0,0,0,3.272-.225,9.184,9.184,0,0,0,2.147-.675l.348.225v1.248A7.729,7.729,0,0,1,75,196.578c2.925,0,4.806,1.391,5.338,3.825a17.9,17.9,0,0,1,.225,2.925v4.724c0,2.638.143,3.415.634,3.886a2.545,2.545,0,0,0,1.616.491v.757c-1.043-.082-2.925-.143-4.009-.143-1.452,0-3.109.082-4.009.143v-.757a3.378,3.378,0,0,0,1.616-.552c.491-.491.552-1.391.634-3.415,0-.634.082-1.882.082-2.781A32.36,32.36,0,0,0,76.981,202a3.023,3.023,0,0,0-3.415-3.047,6.643,6.643,0,0,0-3.047.675v8.467c0,2.638.143,3.415.634,3.886a2.666,2.666,0,0,0,1.534.491v.757c-1.309-.082-2.925-.143-3.947-.143-2.147,0-2.843.082-4.09.143v-.8a2.4,2.4,0,0,0,1.738-.675c.491-.552.552-1.943.552-4.643V202.3c0-2.025-.082-2.843-.348-3.272-.225-.348-.757-.634-1.882-.634v-.9h-.143v.041Zm20.063,14.787a2.25,2.25,0,0,0,1.738-.675c.491-.552.552-1.943.552-4.643V198.93H84.794v-.9a7.215,7.215,0,0,0,2.066-1.125,29.729,29.729,0,0,1,.266-4.315c.634-3.334,2.781-4.99,6.442-4.99a6.871,6.871,0,0,1,4.09,1.309l.082.348-1.616,2.209h-.409a2.89,2.89,0,0,0-2.843-2.066,2.5,2.5,0,0,0-1.616.552c-.675.675-.818,1.738-.818,3.825v3.109h3.6v2.025h-3.6v8.958c0,2.147.082,3.191.348,3.6.409.675,1.882.757,2.556.757v.818c-1.166-.082-3.047-.143-4.377-.143-2.025,0-3.334.082-4.377.143l-.02-.716Zm18.591,1.023c-4.908,0-7.833-3.047-7.833-8.181,0-4.009,2.147-8.672,8.181-8.672,4.908,0,7.833,3.047,7.833,8.181C111.34,208.686,109.172,213.349,103.16,213.349Zm.2-14.991a3.323,3.323,0,0,0-2.291.757c-1.309,1.125-1.943,3.047-1.943,5.89,0,1.125.225,6.524,4.172,6.524a3.323,3.323,0,0,0,2.291-.757c1.309-1.125,1.943-3.047,1.943-5.89C107.516,203.777,107.332,198.358,103.364,198.358Zm9.633-.9a16.429,16.429,0,0,0,3.538-.266,5.469,5.469,0,0,0,1.943-.552l.266.143v1.391a5.263,5.263,0,0,1,3.743-1.534,4.133,4.133,0,0,1,2.843.982v.491l-1.391,2.516h-.675a3.266,3.266,0,0,0-4.438-.961v8.263c0,2.147.082,3.109.348,3.538.409.675,1.8.757,2.556.675v.9c-1.125-.082-3.047-.143-4.377-.143a42.055,42.055,0,0,0-4.377.143v-.818a2.337,2.337,0,0,0,1.738-.675c.491-.552.552-1.882.552-4.643v-4.5c0-2.025,0-2.843-.348-3.272-.266-.348-.818-.552-1.882-.552V197.54l-.041-.082Zm22.7-8.876a26.668,26.668,0,0,0,3.824-.491,16.3,16.3,0,0,0,1.738-.409l.266.143c-.143,1.309-.143,4.315-.143,6.442v13.171c0,1.943,0,3.191.266,3.6a2.239,2.239,0,0,0,1.882.634v.818a21.962,21.962,0,0,0-3.456.348,10.533,10.533,0,0,0-1.8.409l-.409-.143v-1.391a7.321,7.321,0,0,1-4.5,1.534c-4.438,0-7.281-3.047-7.281-7.833a11.2,11.2,0,0,1,.818-4.377,8.087,8.087,0,0,1,7.69-4.581,18.031,18.031,0,0,1,3.109.266v-3.415c0-2.025,0-3.047-.348-3.538-.225-.348-.552-.491-1.738-.552v-.654h.082Zm-.573,22.395a4.444,4.444,0,0,0,2.638-.634v-10.8a4.389,4.389,0,0,0-3.19-1.125c-3.109,0-4.643,2.147-4.643,6.606C129.87,206.886,130.422,210.977,135.126,210.977Zm-88.229.491a5.208,5.208,0,0,1-4.377,1.882c-2.516,0-3.886-.9-4.5-2.925a12.951,12.951,0,0,1-.266-3.272c0-2.557,0-4.643.082-7.076v-1.125H35.668v-.634a8.588,8.588,0,0,0,2.025-1.125,11.2,11.2,0,0,0,2.986-3.886h.675v3.6h5.481v2.025H41.354V207.4c0,2.557.491,3.947,2.843,3.947a3.976,3.976,0,0,0,2.291-.634Z" transform="translate(-20.8 -187.6)" fill="#8c1515"/>
  <path id="Path_8285" data-name="Path 8285" d="M174.527,358.333a1.269,1.269,0,0,0-.818.266.507.507,0,0,0-.225.491,3.428,3.428,0,0,0,.266,1.043l1.534,4.009c.225.634.409,1.125.491,1.452l1.882-5.481a2.734,2.734,0,0,0,.266-1.043.6.6,0,0,0-.225-.409,1.5,1.5,0,0,0-.818-.266v-.634a3.357,3.357,0,0,1,.9.082c.225,0,.634.082.982.082.675,0,1.657-.082,2.066-.082v.634c-.266.082-.9-.082-1.452,1.534l-3.947,10.533c-.552,1.534-1.309,3.415-4.009,3.415a3.55,3.55,0,0,1-2.516-.818v-.266l.982-1.166h.266a1.551,1.551,0,0,0,1.616.9c1.248,0,1.8-1.125,2.638-3.334l.225-.634-3.313-8.651a1.136,1.136,0,0,0-.143-.348c-.082-.225-.266-.634-.266-.634a1.011,1.011,0,0,0-.982-.552v-.634a22.216,22.216,0,0,0,2.291.082,9.947,9.947,0,0,0,1.452-.082c.266,0,.757-.082.982-.082v.552h-.082v.041ZM137.8,358.19a7.657,7.657,0,0,0,2.209-.225,6.774,6.774,0,0,0,1.248-.348l.225.082v.9a3.235,3.235,0,0,1,2.352-.982,2.536,2.536,0,0,1,1.8.634v.348l-.818,1.616H144.4a1.779,1.779,0,0,0-1.738-.9,2.265,2.265,0,0,0-1.125.348v5.215a6.149,6.149,0,0,0,.225,2.291c.266.409,1.125.491,1.616.491v.552c-.675-.082-1.943-.082-2.781-.082a16.7,16.7,0,0,0-2.781.143v-.552a1.693,1.693,0,0,0,1.125-.409c.348-.348.348-1.166.348-2.986V361.4c0-1.248,0-1.8-.225-2.066-.143-.225-.552-.348-1.166-.348v-.757h-.1Zm-46.18,10.062c-2.925,0-4.643-.9-5.277-2.843a10,10,0,0,1-.348-3.191v-5.542c0-1.657-.082-1.943-.409-2.209a2.013,2.013,0,0,0-.982-.348v-.552c.675.082,1.882.143,2.556.143a13.943,13.943,0,0,0,2.638-.143v.634a1.582,1.582,0,0,0-1.125.409c-.348.348-.348.982-.348,2.781V362.3c0,2.925.266,4.806,3.538,4.806,3.334,0,3.538-1.943,3.538-4.908v-5.4c0-1.657-.082-1.943-.409-2.209a2.846,2.846,0,0,0-.982-.348v-.552c.634,0,1.452.082,2.291.082a14.724,14.724,0,0,0,2.434-.143v.634a1.582,1.582,0,0,0-1.125.409c-.348.348-.348.982-.348,2.781v4.172a12.525,12.525,0,0,1-.409,3.947C96.2,367.353,94.519,368.253,91.615,368.253Zm19.777-.634a1.917,1.917,0,0,0,1.166-.409c.348-.348.348-1.166.348-2.986V361.3c0-1.248,0-1.882-.225-2.147-.143-.225-.409-.348-1.166-.409v-.634a9.906,9.906,0,0,0,2.352-.225,6.667,6.667,0,0,0,1.125-.348l.225.225c-.082.675-.082,2.147-.082,4.09v2.986a6.15,6.15,0,0,0,.225,2.291,1.58,1.58,0,0,0,1.248.491v.491a22.465,22.465,0,0,0-2.516-.082c-1.043,0-2.147.082-2.7.143v-.552Zm2.556-11.862a1.188,1.188,0,0,1-1.309-1.248,1.29,1.29,0,0,1,1.391-1.309,1.188,1.188,0,0,1,1.309,1.248A1.278,1.278,0,0,1,113.948,355.757Zm41.292,11.862a1.917,1.917,0,0,0,1.166-.409c.348-.348.348-1.166.348-2.986V361.3c0-1.248,0-1.882-.225-2.147-.143-.225-.409-.348-1.166-.409v-.634a9.906,9.906,0,0,0,2.352-.225,4.911,4.911,0,0,0,1.125-.348l.225.225c-.082.675-.082,2.147-.082,4.09v2.986a6.149,6.149,0,0,0,.225,2.291,1.58,1.58,0,0,0,1.248.491v.491a24.029,24.029,0,0,0-2.556-.082c-1.043,0-2.147.082-2.7.143v-.552Zm2.556-11.862a1.188,1.188,0,0,1-1.309-1.248,1.29,1.29,0,0,1,1.391-1.309,1.188,1.188,0,0,1,1.309,1.248A1.268,1.268,0,0,1,157.8,355.757Zm-10.962,12.005c0-1.043-.082-2.147-.143-2.7h.675a1.893,1.893,0,0,0,.409,1.309,2.046,2.046,0,0,0,1.8.675h.143c1.125,0,1.738-.491,1.738-1.452,0-.757-.491-1.125-1.309-1.616l-1.452-.9a2.975,2.975,0,0,1-1.657-2.638,2.682,2.682,0,0,1,1.452-2.556,4.708,4.708,0,0,1,2.066-.348,18.018,18.018,0,0,1,2.7.266,6.4,6.4,0,0,0-.082,1.248,7.937,7.937,0,0,0,.082,1.391h-.675a1.926,1.926,0,0,0-.409-1.166,2.142,2.142,0,0,0-1.657-.552c-1.043,0-1.616.409-1.616,1.309,0,.675.552,1.043,1.043,1.391h.082l1.391.818c.9.552,2.066,1.248,2.066,2.843,0,2.7-2.516,3.109-3.947,3.109A8.4,8.4,0,0,1,146.835,367.762Zm21.781-.675a3.584,3.584,0,0,1-2.781,1.166c-1.616,0-2.516-.552-2.843-1.882a9.838,9.838,0,0,1-.143-2.066v-5.174h-1.391v-.409a7.086,7.086,0,0,0,1.309-.675,8.508,8.508,0,0,0,1.943-2.516h.491v2.291h3.456v1.248H165.2v5.4c0,1.616.266,2.556,1.8,2.556a2.672,2.672,0,0,0,1.452-.409ZM121.7,357.781a4.322,4.322,0,0,0-.982.082c-.552,0-1.125.082-1.534.082-.757,0-1.882-.082-2.209-.082v.634a1,1,0,0,1,1.043.634,3.279,3.279,0,0,1,.266.634.884.884,0,0,1,.143.348l3.334,8.324,1.043-.225,3.681-8.181c0-.082.082-.143.143-.266.082-.082.082-.225.348-.634a1.248,1.248,0,0,1,1.043-.634v-.634c-.409,0-1.309.082-2.025.082a4.576,4.576,0,0,1-1.043-.082c-.266,0-.675-.082-.982-.082v.552a1.38,1.38,0,0,1,.818.266.736.736,0,0,1,.225.409,4.539,4.539,0,0,1-.266,1.043l-2.025,4.908c-.082-.266-.225-.675-.409-1.248l-1.391-3.681a2.446,2.446,0,0,1-.266-1.043c0-.143,0-.266.143-.348a1.268,1.268,0,0,1,.9-.348v-.552h0Zm-22.661.409a6.793,6.793,0,0,0,2.066-.143,8.781,8.781,0,0,0,1.391-.409l.225.143v.818a4.955,4.955,0,0,1,2.986-.982,3.147,3.147,0,0,1,3.415,2.434,12.6,12.6,0,0,1,.143,1.882v2.986c0,1.657.082,2.147.409,2.516a1.611,1.611,0,0,0,.982.266v.491c-.675,0-1.882-.082-2.556-.082a24.88,24.88,0,0,0-2.556.143v-.491a3.216,3.216,0,0,0,1.043-.348c.266-.266.348-.9.409-2.147v-1.8a22.4,22.4,0,0,0-.082-2.352,1.914,1.914,0,0,0-2.147-1.943,4.6,4.6,0,0,0-1.943.409v5.44c0,1.657.082,2.147.409,2.516a1.611,1.611,0,0,0,.982.266v.491a11.294,11.294,0,0,0-2.638-.225,11.874,11.874,0,0,0-2.556.143v-.491a1.582,1.582,0,0,0,1.125-.409c.266-.348.348-1.248.348-2.986V361.4c0-1.248,0-1.8-.225-2.066-.143-.225-.491-.409-1.166-.348v-.777h-.061Zm33.7,10.062c-3.109,0-4.806-1.8-4.806-5.072,0-.552.143-5.624,4.847-5.624a3.567,3.567,0,0,1,3.19,1.534,4.773,4.773,0,0,1,.675,2.781v.634h-6.442a6.676,6.676,0,0,0,.143,1.309,3.136,3.136,0,0,0,3.415,2.986,4.108,4.108,0,0,0,2.434-.634l.266.491A4.567,4.567,0,0,1,132.744,368.253Zm-2.5-6.933h4.009c0-1.248-.225-2.638-2.025-2.638C130.658,358.763,130.33,360.256,130.249,361.319Z" transform="translate(-71.552 -319.332)" fill="#8c1515"/>
</svg>
