<svg width="47" height="46" viewBox="0 0 47 46" fill="none" xmlns="http://www.w3.org/2000/svg">
<path d="M42.3086 24.1117C42.3086 28.5345 38.7233 32.1198 34.301 32.1198C29.8782 32.1198 26.293 28.5345 26.293 24.1117C26.293 19.6894 29.8782 16.1041 34.301 16.1041C38.7233 16.1041 42.3086 19.6894 42.3086 24.1117Z" fill="#EFECEC"/>
<path d="M25.9861 16.0489L23.3505 12.0968V5.35342C23.3505 2.6626 21.1804 0.444458 18.4426 0.444458H5.57693C2.85309 0.444458 0.667969 2.64939 0.667969 5.35342V13.2153C0.667969 15.913 2.84509 18.1239 5.57693 18.1239H24.8756C25.9388 18.1239 26.5769 16.9352 25.9861 16.0489ZM11.9721 13.1207H7.75822C7.03947 13.1207 6.42115 12.5677 6.38779 11.8497C6.35268 11.083 6.96231 10.4514 7.72103 10.4514H12.0099C12.7673 10.4514 13.3783 11.083 13.3428 11.8493C13.3098 12.5677 12.6912 13.1207 11.9721 13.1207ZM16.2985 8.11688H7.75892C7.04051 8.11688 6.42254 7.5653 6.38814 6.84793C6.35129 6.08121 6.96161 5.44761 7.72103 5.44761H16.2606C16.9797 5.44761 17.5984 6.00058 17.6314 6.71899C17.6669 7.48536 17.0558 8.11688 16.2985 8.11688Z" fill="#EFECEC"/>
<path d="M11.0323 33.5569C5.28393 33.5768 0.667969 38.3224 0.667969 44.0707V44.3633C0.667969 45.2673 1.40063 46 2.30464 46H19.8332C20.7372 46 21.4699 45.2673 21.4699 44.3633V43.9577C21.4699 38.2011 16.7934 33.5368 11.0323 33.5569Z" fill="#EFECEC"/>
<path d="M17.6184 27.0076C17.6184 30.6247 14.6864 33.557 11.069 33.557C7.45191 33.557 4.51953 30.6247 4.51953 27.0076C4.51953 23.3905 7.45191 20.4581 11.069 20.4581C14.6864 20.4581 17.6184 23.3905 17.6184 27.0076Z" fill="#EFECEC"/>
<path d="M46.2229 42.7968H22.0215C22.735 36.7847 27.88 32.1198 34.1229 32.1198C40.3644 32.1198 45.5094 36.7847 46.2229 42.7968Z" fill="#EFECEC"/>
</svg>
