<svg xmlns="http://www.w3.org/2000/svg" width="141.121" height="39.478" viewBox="0 0 141.121 39.478">
  <g id="Group_868" data-name="Group 868" transform="translate(-81.062 -23.057)">
    <path id="Path_8063" data-name="Path 8063" d="M18.58-6.826a5.181,5.181,0,0,1-.506,2.261,5.18,5.18,0,0,1-1.519,1.853,7.688,7.688,0,0,1-2.527,1.253,12.212,12.212,0,0,1-3.54.46,12.315,12.315,0,0,1-3.55-.46A7.678,7.678,0,0,1,4.4-2.711,5.18,5.18,0,0,1,2.882-4.565a5.181,5.181,0,0,1-.506-2.261V-17.443H6.05v9.068a6.438,6.438,0,0,0,.174,1.521A2.849,2.849,0,0,0,6.879-5.6a3.27,3.27,0,0,0,1.35.851,6.756,6.756,0,0,0,2.259.315,6.675,6.675,0,0,0,2.244-.315A3.272,3.272,0,0,0,14.077-5.6a2.806,2.806,0,0,0,.65-1.253A6.619,6.619,0,0,0,14.9-8.376v-9.068H18.58Zm16.753,5.4-9.2-11v11H22.446V-17.443h4L35.661-6.394V-17.443h3.664V-1.429Zm7.956,0V-17.443h3.684V-1.429ZM17.508,19.508q-.715.35-1.44.629a14.218,14.218,0,0,1-1.5.484,12.235,12.235,0,0,1-1.633.309,15.222,15.222,0,0,1-1.842.1,13.34,13.34,0,0,1-3.838-.524,8.425,8.425,0,0,1-3.018-1.579A7.183,7.183,0,0,1,2.267,16.3a8.98,8.98,0,0,1-.7-3.689,8.98,8.98,0,0,1,.7-3.689A7.183,7.183,0,0,1,4.237,6.286,8.425,8.425,0,0,1,7.256,4.706a13.34,13.34,0,0,1,3.838-.524,15.222,15.222,0,0,1,1.842.1,12.234,12.234,0,0,1,1.633.309,14.218,14.218,0,0,1,1.5.484q.725.28,1.44.629V9.6q-.566-.361-1.192-.717a9.836,9.836,0,0,0-1.38-.641A10.163,10.163,0,0,0,11.243,7.6a8.487,8.487,0,0,0-2.884.42A4.85,4.85,0,0,0,6.526,9.135a3.906,3.906,0,0,0-.963,1.6,6.323,6.323,0,0,0-.278,1.871A6.722,6.722,0,0,0,5.4,13.873a4.485,4.485,0,0,0,.4,1.177,4.181,4.181,0,0,0,.725,1.02,4.085,4.085,0,0,0,1.112.8,6.428,6.428,0,0,0,1.554.53,9.764,9.764,0,0,0,2.05.192,11.129,11.129,0,0,0,2.035-.169,10.128,10.128,0,0,0,1.658-.449,9.408,9.408,0,0,0,1.38-.635q.626-.355,1.192-.728Zm20.785-6.9a9.57,9.57,0,0,1-.645,3.642,6.985,6.985,0,0,1-1.847,2.64,7.972,7.972,0,0,1-2.914,1.6,12.726,12.726,0,0,1-3.848.542,12.824,12.824,0,0,1-3.858-.542,8.061,8.061,0,0,1-2.934-1.6,7.03,7.03,0,0,1-1.867-2.64,9.442,9.442,0,0,1-.655-3.642,9.442,9.442,0,0,1,.655-3.642,7.03,7.03,0,0,1,1.867-2.64,8.061,8.061,0,0,1,2.934-1.6,12.824,12.824,0,0,1,3.858-.542,12.726,12.726,0,0,1,3.848.542,7.972,7.972,0,0,1,2.914,1.6,6.985,6.985,0,0,1,1.847,2.64A9.57,9.57,0,0,1,38.293,12.609Zm-3.723,0a6.77,6.77,0,0,0-.243-1.789,4.018,4.018,0,0,0-.864-1.6,4.456,4.456,0,0,0-1.693-1.154,7.213,7.213,0,0,0-2.731-.443,8.38,8.38,0,0,0-1.956.2,5.36,5.36,0,0,0-1.46.565,4.062,4.062,0,0,0-1.033.845,4.244,4.244,0,0,0-.665,1.037,4.829,4.829,0,0,0-.352,1.154,6.9,6.9,0,0,0-.1,1.183,7.071,7.071,0,0,0,.1,1.2,4.82,4.82,0,0,0,.352,1.16A4.14,4.14,0,0,0,24.59,16a4.027,4.027,0,0,0,1.033.833,5.487,5.487,0,0,0,1.46.559,8.381,8.381,0,0,0,1.956.2,7.213,7.213,0,0,0,2.731-.443A4.456,4.456,0,0,0,33.462,16a4.018,4.018,0,0,0,.864-1.6A6.77,6.77,0,0,0,34.569,12.609Zm6.775,8V4.59h3.684V17.1h9.959V20.6Zm16.287,0V4.59h3.684V17.1h9.959V20.6Zm16.287,0V4.59H87.729V8H77.7v2.646h9.512v3.415H77.7v3.124H87.868V20.6ZM99.9,4.182a16.385,16.385,0,0,1,3.728.4A18.232,18.232,0,0,1,106.8,5.616V9.532a11.777,11.777,0,0,0-1.276-.723,11.355,11.355,0,0,0-1.544-.618,13.018,13.018,0,0,0-1.787-.431,11.879,11.879,0,0,0-2.006-.163,10.387,10.387,0,0,0-2.284.221,6.649,6.649,0,0,0-1.668.594,4.1,4.1,0,0,0-1.847,1.923,4.536,4.536,0,0,0-.357,1.142,6.728,6.728,0,0,0-.1,1.131,6.984,6.984,0,0,0,.084,1.037,4.737,4.737,0,0,0,.318,1.119,4.36,4.36,0,0,0,.65,1.072,4.012,4.012,0,0,0,1.087.909,6.112,6.112,0,0,0,1.613.635,9.23,9.23,0,0,0,2.244.239q.655,0,1.142-.047a8.629,8.629,0,0,0,.889-.128,6.559,6.559,0,0,0,.755-.2q.352-.117.73-.245V15.068H99.309V11.56h7.814v8.182a14.42,14.42,0,0,1-1.643.53q-.909.239-1.877.408t-1.941.262q-.973.093-1.837.093a15.294,15.294,0,0,1-2.572-.21,10.863,10.863,0,0,1-2.3-.647,8.384,8.384,0,0,1-1.946-1.113,6.693,6.693,0,0,1-1.5-1.608,7.557,7.557,0,0,1-.963-2.139,9.918,9.918,0,0,1-.343-2.71,9.544,9.544,0,0,1,.357-2.7,7.509,7.509,0,0,1,1-2.145A6.856,6.856,0,0,1,93.1,6.152a8.727,8.727,0,0,1,1.976-1.113,11.078,11.078,0,0,1,2.3-.647A14.962,14.962,0,0,1,99.9,4.182ZM110.78,20.6V4.59h13.812V8H114.563v2.646h9.512v3.415h-9.512v3.124h10.168V20.6ZM140.551,9.1a11.274,11.274,0,0,0-1.023-.5,13.72,13.72,0,0,0-1.44-.53,14.448,14.448,0,0,0-1.748-.42A10.959,10.959,0,0,0,134.4,7.48a13.4,13.4,0,0,0-1.355.058,7.209,7.209,0,0,0-.943.152,2.54,2.54,0,0,0-.606.216,1.356,1.356,0,0,0-.343.251.624.624,0,0,0-.154.256.9.9,0,0,0-.035.233.794.794,0,0,0,.3.612,2.766,2.766,0,0,0,.814.466,10.771,10.771,0,0,0,1.2.385q.685.181,1.455.373t1.589.42a16.025,16.025,0,0,1,1.589.53,10.388,10.388,0,0,1,1.455.705,5.57,5.57,0,0,1,1.2.938,3.922,3.922,0,0,1,1.112,2.832,5.1,5.1,0,0,1-.348,1.981,4.23,4.23,0,0,1-.928,1.4,4.581,4.581,0,0,1-1.345.915,8.277,8.277,0,0,1-1.6.53,11.359,11.359,0,0,1-1.7.245q-.859.058-1.633.058a16.951,16.951,0,0,1-3.748-.39,16.7,16.7,0,0,1-3.043-.973V15.849a11.444,11.444,0,0,0,3.1,1.387,13.433,13.433,0,0,0,3.728.5,10.216,10.216,0,0,0,1.911-.146,4.147,4.147,0,0,0,1.157-.373,1.373,1.373,0,0,0,.566-.5,1.058,1.058,0,0,0,.149-.513.9.9,0,0,0-.3-.67,2.632,2.632,0,0,0-.814-.5,9.277,9.277,0,0,0-1.2-.4q-.685-.181-1.455-.361t-1.584-.39a16.085,16.085,0,0,1-1.584-.5,10.68,10.68,0,0,1-1.455-.664,5.3,5.3,0,0,1-1.2-.9,3.759,3.759,0,0,1-1.112-2.78,4.779,4.779,0,0,1,.318-1.83,3.982,3.982,0,0,1,.859-1.311,4.465,4.465,0,0,1,1.251-.88,7.5,7.5,0,0,1,1.494-.524,10.967,10.967,0,0,1,1.589-.256q.8-.07,1.529-.07a14.789,14.789,0,0,1,1.633.093q.839.093,1.653.262t1.574.39q.76.221,1.4.466Z" transform="translate(80 41)" fill="#fff" stroke="#fff" stroke-width="1"/>
    <path id="Path_8064" data-name="Path 8064" d="M14.673-7.869a7.086,7.086,0,0,1-.706,2.41,7.772,7.772,0,0,1-1.4,1.949q.7.584,1.424,1.167t1.48,1.167H11.714q-.545-.4-1.083-.847A8.942,8.942,0,0,1,8.6-1.2a8.154,8.154,0,0,1-2.109.282,8.852,8.852,0,0,1-2.161-.24,4.678,4.678,0,0,1-1.6-.711,3.13,3.13,0,0,1-1-1.172,3.636,3.636,0,0,1-.345-1.624,3.81,3.81,0,0,1,.209-1.29,4.062,4.062,0,0,1,.565-1.064,5.118,5.118,0,0,1,.83-.875,9.29,9.29,0,0,1,.994-.725,7.06,7.06,0,0,1-.67-1.365A3.907,3.907,0,0,1,3.076-11.3a2.86,2.86,0,0,1,.281-1.29,2.578,2.578,0,0,1,.826-.955,4.024,4.024,0,0,1,1.335-.6,7.191,7.191,0,0,1,1.816-.207,5.3,5.3,0,0,1,1.608.221,3.475,3.475,0,0,1,1.155.6,2.516,2.516,0,0,1,.694.861,2.292,2.292,0,0,1,.233,1,2.493,2.493,0,0,1-.277,1.177,3.814,3.814,0,0,1-.734.97A6.513,6.513,0,0,1,8.971-8.7Q8.386-8.33,7.76-8q.6.668,1.335,1.389t1.6,1.483A3.971,3.971,0,0,0,11.469-6.3a4.986,4.986,0,0,0,.381-1.567ZM6.541-3.454a6.825,6.825,0,0,0,.95-.071,6.641,6.641,0,0,0,1.023-.231q-.866-.763-1.64-1.492T5.442-6.711a4.031,4.031,0,0,0-.918.763,1.339,1.339,0,0,0-.349.894,1.636,1.636,0,0,0,.1.56,1.242,1.242,0,0,0,.373.518,2.071,2.071,0,0,0,.726.377A3.893,3.893,0,0,0,6.541-3.454Zm-.674-7.653a1.637,1.637,0,0,0,.12.579,4.515,4.515,0,0,0,.345.692q.417-.2.778-.381a5.7,5.7,0,0,0,.63-.367,1.825,1.825,0,0,0,.421-.381.681.681,0,0,0,.152-.424.8.8,0,0,0-.048-.254.7.7,0,0,0-.168-.264.957.957,0,0,0-.333-.207,1.5,1.5,0,0,0-.549-.085,2.139,2.139,0,0,0-.674.089,1.067,1.067,0,0,0-.413.235.769.769,0,0,0-.2.344A1.545,1.545,0,0,0,5.867-11.107Z" transform="translate(135.297 39.828)" fill="#f85d82" stroke="#f85d82" stroke-width="0.6"/>
  </g>
</svg>
