<svg xmlns="http://www.w3.org/2000/svg" xmlns:xlink="http://www.w3.org/1999/xlink" width="202.517" height="60.653" viewBox="0 0 202.517 60.653">
  <defs>
    <clipPath id="clip-path">
      <rect id="Rectangle_1181" data-name="Rectangle 1181" width="202.517" height="60.653"/>
    </clipPath>
  </defs>
  <g id="Group_847" data-name="Group 847" transform="translate(-657 -2899)">
    <g id="Group_723" data-name="Group 723" transform="translate(657 2899)" clip-path="url(#clip-path)">
      <path id="Path_8174" data-name="Path 8174" d="M121.1,85.41a4.218,4.218,0,0,1,.353-.281l.652-.478c.464-.345.694-.282.694.125a1.382,1.382,0,0,1-.345.871c.125-.069.314-.1.314.277,0,.282.029.514.112.551l-.4.3a.527.527,0,0,1-.057-.311c0-.446-.081-.579-.419-.326l-.539.407v1l-.37.277V85.41Zm.346.124c.009.269.016.547.02.742l.608-.46a.8.8,0,0,0,.357-.652c0-.306-.169-.238-.362-.092Z" transform="translate(-71.514 -49.857)"/>
    </g>
    <g id="Group_724" data-name="Group 724" transform="translate(657 2899)" clip-path="url(#clip-path)">
      <path id="Path_8175" data-name="Path 8175" d="M111.042,94.375l-.455.235v-2.5a4.2,4.2,0,0,1,.37-.208l.74-.407c.414-.22.677-.169.677.251a1.028,1.028,0,0,1-.326.708c.282-.077.432.081.432.414a1.393,1.393,0,0,1-.846,1.165Zm-.055-2.133.017.684.637-.354a.625.625,0,0,0,.338-.527c0-.255-.125-.277-.338-.164Zm.024,1,.02.761.665-.365a.69.69,0,0,0,.383-.6c0-.245-.145-.306-.383-.176Z" transform="translate(-65.305 -53.954)"/>
    </g>
    <g id="Group_725" data-name="Group 725" transform="translate(657 2899)" clip-path="url(#clip-path)">
      <path id="Path_8176" data-name="Path 8176" d="M104.85,96.893l-.2.754-.466.214.834-2.916.419-.194,1.079,2.057-.426.194-.258-.556Zm.851-.73-.416-.9-.33,1.235Z" transform="translate(-61.525 -55.953)"/>
    </g>
    <g id="Group_726" data-name="Group 726" transform="translate(657 2899)" clip-path="url(#clip-path)">
      <path id="Path_8177" data-name="Path 8177" d="M75.483,113.193l-.25.665-.483-.037,1.022-2.483.5.037L77.3,114l-.495-.031-.238-.692c-.3-.019-.859-.063-1.08-.081m.941-.319-.407-1.116-.4,1.062Z" transform="translate(-44.142 -65.748)"/>
    </g>
    <g id="Group_727" data-name="Group 727" transform="translate(657 2899)" clip-path="url(#clip-path)">
      <path id="Path_8178" data-name="Path 8178" d="M59.2,99.342l-.226.579-.451-.164.946-2.15.419.157.91,2.726-.444-.118-.194-.649Zm.838-.017-.359-1.192-.359.915Z" transform="translate(-34.56 -57.64)"/>
    </g>
    <g id="Group_728" data-name="Group 728" transform="translate(657 2899)" clip-path="url(#clip-path)">
      <path id="Path_8179" data-name="Path 8179" d="M64.893,84.384c.677-.439.571-.408.571-1.185v-.567c-1.02.667-2.1,1.306-3.229,1.9V86.1s1.5-.974,2.658-1.712M66.53,81.91V83.3c0,1.066-.093,1.279-.689,1.682-.941.627-2.412,1.64-4.671,2.97v-2.89a31.142,31.142,0,0,1-4.24,1.679l-.011,4.233a20.392,20.392,0,0,1-7.847,1.461,20.446,20.446,0,0,1-7.859-1.461V86.744a31.044,31.044,0,0,1-4.236-1.676v2.888c-2.262-1.329-3.736-2.344-4.676-2.97-.595-.4-.689-.616-.689-1.682v-1.4a50.491,50.491,0,0,1-4.3-3.386V72.371h4.84c1.964,3.072,3.4,5.272,4.162,6.5a37.013,37.013,0,0,0,8.37,3.536c.854.231,1.687.426,2.5.571V86.8c.615.044,3.152.044,3.768,0V82.979c.808-.144,1.647-.339,2.495-.571a37.622,37.622,0,0,0,8.438-3.536s2.166-3.472,4.094-6.5l4.84,0,.005,6.145a50.349,50.349,0,0,1-4.3,3.39m-33.851.717V83.2c0,.777-.1.746.577,1.185L35.907,86.1V84.53c-1.131-.592-2.21-1.235-3.229-1.9m37.1-8.652c-3.937,4.759-11.8,8.658-17.453,9.812l3.611,2.169a39.117,39.117,0,0,0,7.662-3.4c4.7-2.911,6.181-4.653,6.181-4.653V73.976Zm-5.806,3.6c.873-.575,1.547-1.05,1.547-1.05l-.061-1.361Zm-29.831-.11c-.419-.684-.842-1.322-1.455-2.3v1.361c.484.365,1.455.941,1.455.941m-5.758-3.479-.011,4.07c3.981,3.222,8.339,6.387,13.835,7.9l3.617-2.169c-5.649-1.155-13.506-5.046-17.442-9.8M42.295,87.076v3.156a17.486,17.486,0,0,0,6.779,1.14,17.492,17.492,0,0,0,6.776-1.14V87.078a26.3,26.3,0,0,1-6.776.878,29.253,29.253,0,0,1-6.772-.878Z" transform="translate(-16.131 -42.737)"/>
    </g>
    <path id="Path_8180" data-name="Path 8180" d="M56.224,40.06C46.993,37.594,39.3,29.672,39.3,21.4V1.381h33.85V21.4c0,8.273-7.694,16.2-16.924,18.661M40.38,2.463V21.425c0,7.317,6.615,14.785,15.844,17.552,9.2-2.767,15.82-10.235,15.82-17.552V2.463H40.38Z" transform="translate(633.793 2898.185)"/>
    <g id="Group_730" data-name="Group 730" transform="translate(657 2899)" clip-path="url(#clip-path)">
      <path id="Path_8181" data-name="Path 8181" d="M57.035,98.621l.432.169V96.321l-.432-.189Z" transform="translate(-33.681 -56.769)"/>
    </g>
    <g id="Group_731" data-name="Group 731" transform="translate(657 2899)" clip-path="url(#clip-path)">
      <path id="Path_8182" data-name="Path 8182" d="M51.772,94.083l.665.318v2.127l.424.2V94.641l.7.289v-.377L51.772,93.7Z" transform="translate(-30.573 -55.333)" fill-rule="evenodd"/>
    </g>
    <g id="Group_732" data-name="Group 732" transform="translate(657 2899)" clip-path="url(#clip-path)">
      <path id="Path_8183" data-name="Path 8183" d="M47.916,93.471l-.013-.007-.953-2.393-.432-.251v2.5l.388.233V91.71l.013.007.953,2.4.4.225V91.8l-.351-.2Z" transform="translate(-27.47 -53.632)"/>
    </g>
    <g id="Group_733" data-name="Group 733" transform="translate(657 2899)" clip-path="url(#clip-path)">
      <path id="Path_8184" data-name="Path 8184" d="M42.157,88.507l1.135.728v-.378l-1.5-.958v2.5l1.523.977V91l-1.153-.741v-.734l1.047.672v-.357l-1.047-.671Z" transform="translate(-24.676 -51.907)" fill-rule="evenodd"/>
    </g>
    <g id="Group_734" data-name="Group 734" transform="translate(657 2899)" clip-path="url(#clip-path)">
      <path id="Path_8185" data-name="Path 8185" d="M39.968,89.175l.4.255V86.974l-.4-.258Z" transform="translate(-23.602 -51.208)"/>
    </g>
    <g id="Group_735" data-name="Group 735" transform="translate(657 2899)" clip-path="url(#clip-path)">
      <path id="Path_8186" data-name="Path 8186" d="M36.634,85.624a1.771,1.771,0,0,0-.79-1.341c-.551-.346-.883.043-.883.764a2.269,2.269,0,0,0,.883,1.857c.452.277.765.063.79-.527l-.314-.194c-.024.351-.188.544-.475.363a1.548,1.548,0,0,1-.565-1.3c0-.483.169-.854.564-.608a1.061,1.061,0,0,1,.464.784Z" transform="translate(-20.645 -49.696)"/>
    </g>
    <g id="Group_736" data-name="Group 736" transform="translate(657 2899)" clip-path="url(#clip-path)">
      <path id="Path_8187" data-name="Path 8187" d="M30.935,81.825a1.734,1.734,0,0,0,.728,1.4c.345.239.689.257.689-.3a1.352,1.352,0,0,0-.339-.871c-.085-.106-.47-.515-.495-.545a.7.7,0,0,1-.206-.471c0-.25.176-.2.311-.1a.83.83,0,0,1,.377.7l.3.206a1.592,1.592,0,0,0-.664-1.26c-.313-.22-.633-.2-.633.3a1.319,1.319,0,0,0,.382.9c.238.257.4.42.52.565a.63.63,0,0,1,.145.407c0,.194-.1.314-.37.126a1.007,1.007,0,0,1-.439-.841l-.306-.214Z" transform="translate(-18.268 -47.508)"/>
    </g>
    <g id="Group_737" data-name="Group 737" transform="translate(657 2899)" clip-path="url(#clip-path)">
      <path id="Path_8188" data-name="Path 8188" d="M83.53,112.036a.973.973,0,0,0-1.14-.809,1.313,1.313,0,0,0-1.243,1.412,1.188,1.188,0,0,0,1.285,1.259A1.125,1.125,0,0,0,83.55,112.8l-.452.025a.711.711,0,0,1-.671.708c-.564.036-.808-.439-.814-.921a.89.89,0,0,1,.784-1.023.6.6,0,0,1,.671.471Z" transform="translate(-47.919 -65.681)"/>
    </g>
    <g id="Group_738" data-name="Group 738" transform="translate(657 2899)" clip-path="url(#clip-path)">
      <path id="Path_8189" data-name="Path 8189" d="M126.46,81.412l.992-.89v-.357l-1.312,1.172v2.407l1.329-1.184v-.371l-1.01.9v-.708l.915-.814v-.345l-.915.821Z" transform="translate(-74.49 -47.34)" fill-rule="evenodd"/>
    </g>
    <g id="Group_739" data-name="Group 739" transform="translate(657 2899)" clip-path="url(#clip-path)">
      <path id="Path_8190" data-name="Path 8190" d="M100.98,99.282l-1.317.478V97.633l-.451.184v2.5l1.768-.652Z" transform="translate(-58.588 -57.655)" fill-rule="evenodd"/>
    </g>
    <g id="Group_740" data-name="Group 740" transform="translate(657 2899)" clip-path="url(#clip-path)">
      <path id="Path_8191" data-name="Path 8191" d="M115.706,90.712a2.269,2.269,0,0,1,.728-1.973c.595-.545,1.047-.377,1.165.226a2.172,2.172,0,0,1-.733,1.968c-.587.5-1.047.377-1.16-.221m1.549-1.429c-.082-.4-.333-.639-.758-.245a1.482,1.482,0,0,0-.446,1.348c.076.4.315.62.753.251a1.417,1.417,0,0,0,.451-1.354" transform="translate(-68.311 -52.208)" fill-rule="evenodd"/>
    </g>
    <g id="Group_741" data-name="Group 741" transform="translate(657 2899)" clip-path="url(#clip-path)">
      <path id="Path_8192" data-name="Path 8192" d="M75.259,58.942V62.96a9.871,9.871,0,0,0-2.335-4.021l2.335,0Zm-7.285,0c.907,2.614,2.642,4.349,5.876,5.425H52.5c3.252-1.078,4.993-2.811,5.9-5.427Zm-14.544,0a10.093,10.093,0,0,0-2.34,4.018V58.942Z" transform="translate(-30.17 -34.805)" fill-rule="evenodd"/>
    </g>
    <g id="Group_742" data-name="Group 742" transform="translate(657 2899)" clip-path="url(#clip-path)">
      <path id="Path_8193" data-name="Path 8193" d="M63.189,29.168c1.131,0,1.03-.427,1.809-.427h3.269V22.278l-.452-.3v6.237h-2.54c-1.459,0-1.082.427-2.086.427-1.031,0-.631-.427-2.087-.427h-2.54V21.975l-.454.3V28.74h3.27c.754,0,.653.428,1.811.428m.4-1.433a2.814,2.814,0,0,1,1.66-.327h1.76V21.976c-.881,0-.881-.226-1.887-.226a1.391,1.391,0,0,0-1.534,1.257Zm-.8,0a2.848,2.848,0,0,0-1.658-.327H59.367V21.976c.881,0,.881-.226,1.887-.226a1.391,1.391,0,0,1,1.533,1.257Zm-8.4-.982h.545a.292.292,0,0,0-.277-.311.281.281,0,0,0-.269.3Zm.545.478h-.545v.044a.281.281,0,0,0,.269.294.288.288,0,0,0,.277-.294Zm2.1.454H55.341a.79.79,0,0,1-.679.377.761.761,0,0,1-.78-.754v-.076h-.126a.237.237,0,0,1-.251-.25.233.233,0,0,1,.251-.228h.126v-.074a.776.776,0,0,1,.78-.753.733.733,0,0,1,.679.476l1.7-.024Zm12.285-1.306h2.22c.58,0,.958.1.958.579,0,.552-.3.729-.83.729H69.317ZM54.385,23.209h.545a.293.293,0,0,0-.277-.313.281.281,0,0,0-.269.294Zm.545.476h-.545v.044a.281.281,0,0,0,.269.294.288.288,0,0,0,.277-.294Zm2.1.454H55.341a.79.79,0,0,1-.679.377.762.762,0,0,1-.78-.753v-.077h-.126a.237.237,0,0,1-.251-.25.232.232,0,0,1,.251-.226h.126v-.077a.777.777,0,0,1,.78-.753.735.735,0,0,1,.679.476l1.7-.023Zm12.285-1.306h2.22c.58,0,.958.1.958.577,0,.553-.3.73-.83.73H69.317ZM51.1,31.913V14.579c1.409,4.15,3.848,5.859,7.9,6.488-.628-4.05-2.314-6.488-6.487-7.9H73.855c-4.15,1.41-5.834,3.849-6.463,7.9,4.05-.629,6.49-2.339,7.873-6.488V31.912H72.928a9.586,9.586,0,0,0-5.536-2.447,14.161,14.161,0,0,0,.587,2.445H58.407a14.209,14.209,0,0,0,.585-2.447,9.489,9.489,0,0,0-5.556,2.452l-2.34,0Z" transform="translate(-30.174 -7.776)" fill-rule="evenodd"/>
    </g>
    <g id="Group_743" data-name="Group 743" transform="translate(657 2899)" clip-path="url(#clip-path)">
      <path id="Path_8194" data-name="Path 8194" d="M150.854,111.226a.645.645,0,0,0,.491-.217,6.571,6.571,0,0,0,.532-1.091l1.734-4.078h.271l2.067,4.7a1.988,1.988,0,0,0,.3.547.886.886,0,0,0,.442.138v.3h-2.258v-.309a1.816,1.816,0,0,0,.516-.076c.025-.013.055-.044.055-.152a1.842,1.842,0,0,0-.145-.5l-.322-.738h-2.034c-.2.506-.321.814-.362.93a.823.823,0,0,0-.056.253.207.207,0,0,0,.12.212,1.772,1.772,0,0,0,.442.072v.309h-1.8v-.307Zm2.677-3.926-.813,1.957h1.635Z" transform="translate(-89.084 -62.502)" fill-rule="evenodd"/>
    </g>
    <g id="Group_744" data-name="Group 744" transform="translate(657 2899)" clip-path="url(#clip-path)">
      <path id="Path_8195" data-name="Path 8195" d="M175.825,106.386a1.342,1.342,0,0,0-.64.145c-.063.055-.112.208-.112.514v2.625a2.244,2.244,0,0,0,.168.97,1.174,1.174,0,0,0,1.171.611c1.232,0,1.458-.72,1.458-1.751v-2.135a1.336,1.336,0,0,0-.137-.78,1.071,1.071,0,0,0-.633-.2v-.313h2.067v.313c-.178.019-.516.053-.643.21a1.42,1.42,0,0,0-.125.768V109.5a2.864,2.864,0,0,1-.271,1.366,2.418,2.418,0,0,1-3.788.012,2.593,2.593,0,0,1-.27-1.268v-2.565c0-.3-.051-.455-.112-.511a1.328,1.328,0,0,0-.631-.149v-.314h2.5Z" transform="translate(-102.355 -62.638)"/>
    </g>
    <g id="Group_745" data-name="Group 745" transform="translate(657 2899)" clip-path="url(#clip-path)">
      <path id="Path_8196" data-name="Path 8196" d="M197.188,110.6a1.451,1.451,0,0,0,1.151.544.917.917,0,0,0,.621-.229.785.785,0,0,0,.259-.631.881.881,0,0,0-.263-.637,11.577,11.577,0,0,0-1.481-.99,2.623,2.623,0,0,1-.522-.419,1.336,1.336,0,0,1-.371-.914,1.5,1.5,0,0,1,1.591-1.531,2.119,2.119,0,0,1,.7.145,3.892,3.892,0,0,0,.426.132c.092,0,.129-.024.142-.041a.548.548,0,0,0,.09-.235h.31l.2,1.916h-.354a1.874,1.874,0,0,0-.629-1.118,1.422,1.422,0,0,0-.825-.3.684.684,0,0,0-.753.665.714.714,0,0,0,.173.486,2.41,2.41,0,0,0,.577.46l.722.444a3.8,3.8,0,0,1,.974.785,1.419,1.419,0,0,1,.293.886,1.461,1.461,0,0,1-.519,1.142,1.881,1.881,0,0,1-1.3.454,2.521,2.521,0,0,1-.825-.148,3.606,3.606,0,0,0-.446-.14c-.08,0-.109.023-.124.045a.669.669,0,0,0-.065.231h-.326l-.267-1.916h.343a3.038,3.038,0,0,0,.5.911" transform="translate(-115.949 -62.471)"/>
    </g>
    <g id="Group_746" data-name="Group 746" transform="translate(657 2899)" clip-path="url(#clip-path)">
      <path id="Path_8197" data-name="Path 8197" d="M219.837,106.071l.049,1.565h-.351a1.863,1.863,0,0,0-.358-.875,1.43,1.43,0,0,0-.878-.178h-.37V110.7c0,.323.053.475.116.526a1.772,1.772,0,0,0,.683.138v.31h-2.561v-.31c.682-.052.777-.056.777-.76v-4.019h-.373a1.506,1.506,0,0,0-.878.178,1.659,1.659,0,0,0-.351.875h-.357l.052-1.565h4.8Z" transform="translate(-126.955 -62.638)"/>
    </g>
    <g id="Group_747" data-name="Group 747" transform="translate(657 2899)" clip-path="url(#clip-path)">
      <path id="Path_8198" data-name="Path 8198" d="M235.814,111.2a1.136,1.136,0,0,0,.1-.6v-3.555a.777.777,0,0,0-.108-.506,1.163,1.163,0,0,0-.6-.154v-.314h2.356a3.4,3.4,0,0,1,1.212.188,1.332,1.332,0,0,1,.951,1.333,1.235,1.235,0,0,1-.43,1.007,2.149,2.149,0,0,1-.979.426l1.6,1.968a.873.873,0,0,0,.732.37v.307H239.2l-1.954-2.523-.333.015V110.7c0,.306.048.463.108.518a1.461,1.461,0,0,0,.633.146v.309H235.2v-.309c.138-.013.51-.043.609-.161m2.848-3.617a.887.887,0,0,0-.534-.9,2.013,2.013,0,0,0-.8-.133,1.044,1.044,0,0,0-.383.039c-.009.007-.036.039-.036.161v1.936a3.82,3.82,0,0,0,1.149-.176.907.907,0,0,0,.6-.929" transform="translate(-138.895 -62.638)" fill-rule="evenodd"/>
    </g>
    <g id="Group_748" data-name="Group 748" transform="translate(657 2899)" clip-path="url(#clip-path)">
      <path id="Path_8199" data-name="Path 8199" d="M255.859,111.226a.645.645,0,0,0,.491-.217,6.574,6.574,0,0,0,.532-1.091l1.734-4.078h.271l2.067,4.7a1.986,1.986,0,0,0,.3.547.886.886,0,0,0,.442.138v.3h-2.258v-.309a1.832,1.832,0,0,0,.518-.076c.024-.013.053-.044.053-.152a1.843,1.843,0,0,0-.145-.5l-.319-.74h-2.034c-.2.506-.321.814-.362.93a.823.823,0,0,0-.056.253.207.207,0,0,0,.12.212,1.772,1.772,0,0,0,.442.072v.309h-1.8v-.306Zm2.678-3.926-.812,1.957h1.635l-.824-1.957Z" transform="translate(-151.092 -62.502)" fill-rule="evenodd"/>
    </g>
    <g id="Group_749" data-name="Group 749" transform="translate(657 2899)" clip-path="url(#clip-path)">
      <path id="Path_8200" data-name="Path 8200" d="M278.9,111.215c.057-.049.106-.2.106-.518v-3.651a.784.784,0,0,0-.108-.51c-.114-.118-.463-.138-.613-.149v-.314h2.489v.315a1.358,1.358,0,0,0-.641.136c-.069.056-.121.194-.121.467v3.942a.361.361,0,0,0,.033.174c.011.019.043.043.138.055l.189.017.382,0a3.933,3.933,0,0,0,1.442-.173,2.018,2.018,0,0,0,.729-.93h.371l-.448,1.593h-4.565v-.309a1.55,1.55,0,0,0,.616-.15" transform="translate(-164.333 -62.64)"/>
    </g>
    <g id="Group_750" data-name="Group 750" transform="translate(657 2899)" clip-path="url(#clip-path)">
      <path id="Path_8201" data-name="Path 8201" d="M299.328,111.228c.063-.049.116-.2.116-.527V107.05c0-.3-.053-.46-.12-.518a1.429,1.429,0,0,0-.68-.14v-.315h2.6v.315a1.456,1.456,0,0,0-.678.14c-.067.057-.12.214-.12.518V110.7c0,.325.053.478.116.527a1.8,1.8,0,0,0,.682.137v.311h-2.6v-.311a1.834,1.834,0,0,0,.684-.137" transform="translate(-176.358 -62.642)"/>
    </g>
    <g id="Group_751" data-name="Group 751" transform="translate(657 2899)" clip-path="url(#clip-path)">
      <path id="Path_8202" data-name="Path 8202" d="M313.31,111.226a.64.64,0,0,0,.491-.217,6.6,6.6,0,0,0,.535-1.091l1.732-4.078h.271l2.066,4.7a2.014,2.014,0,0,0,.3.547.882.882,0,0,0,.442.138v.3h-2.258v-.309a1.816,1.816,0,0,0,.516-.076c.025-.013.053-.044.053-.152a1.839,1.839,0,0,0-.144-.5l-.319-.74h-2.036c-.2.506-.321.814-.361.93a.824.824,0,0,0-.056.253.206.206,0,0,0,.12.212,1.773,1.773,0,0,0,.442.072v.309h-1.8v-.306Zm2.678-3.926-.813,1.957h1.635Z" transform="translate(-185.019 -62.502)" fill-rule="evenodd"/>
    </g>
    <g id="Group_752" data-name="Group 752" transform="translate(657 2899)" clip-path="url(#clip-path)">
      <path id="Path_8203" data-name="Path 8203" d="M362.87,14.755a2.883,2.883,0,0,1-2.314,2.57l2.977,3.9c.3.345.579.75.985.75h.064v.278H362.27l-3.578-4.712h-.664V20.9c0,.685.278,1.071.942,1.071h.065v.278h-3.685v-.278h.108c.641,0,.921-.386.921-1.071v-7.52c0-.664-.279-1.071-.921-1.071h-.108v-.278h2.678c3.941-.214,4.824,1.1,4.841,2.721m-4.843-1.891V16.9h.858a2.2,2.2,0,0,0,2.228-2.141,2.127,2.127,0,0,0-2.228-2.057,1.73,1.73,0,0,0-.858.166" transform="translate(-209.845 -7.093)" fill-rule="evenodd"/>
    </g>
    <g id="Group_753" data-name="Group 753" transform="translate(657 2899)" clip-path="url(#clip-path)">
      <path id="Path_8204" data-name="Path 8204" d="M153.032,18.317v-.363h-.579a1.2,1.2,0,0,1-1.136-1.22V6.45h2.377c.986,0,1.586.728,1.65,2.163h.319l-.125-3.083a.15.15,0,0,0-.085-.108H145.02s-.084.064-.084.108l-.129,3.083h.343c.064-1.436.664-2.163,1.65-2.163h2.376V16.733a1.209,1.209,0,0,1-1.157,1.22h-.6v.363h5.612Z" transform="translate(-85.513 -3.202)"/>
    </g>
    <g id="Group_754" data-name="Group 754" transform="translate(657 2899)" clip-path="url(#clip-path)">
      <path id="Path_8205" data-name="Path 8205" d="M246.066,6.654a.8.8,0,0,0-.857-.9h-.492V5.368h3.705v.386h-.428a.789.789,0,0,0-.878.9v7.5c0,2.42-1.863,4.285-4.927,4.285s-5.076-1.907-5.076-4.5V6.953a1.188,1.188,0,0,0-1.157-1.2h-.15V5.369h4.756v.386h-.172a1.2,1.2,0,0,0-1.156,1.2V14a3.141,3.141,0,0,0,3.149,3.406c1.885,0,3.684-1.136,3.684-3.256v-7.5Z" transform="translate(-139.25 -3.17)"/>
    </g>
    <g id="Group_755" data-name="Group 755" transform="translate(657 2899)" clip-path="url(#clip-path)">
      <path id="Path_8206" data-name="Path 8206" d="M180.678,17.318h-4.37v3.514c0,.685.279,1.071.922,1.071h.064v.278H173.63V21.9h.064c.706,0,.921-.386.921-1.071V13.311c0-.664-.214-1.071-.921-1.071h-.064v-.277h3.663v.278h-.064c-.643,0-.922.407-.922,1.071v3.278h4.37v-3.28c0-.664-.278-1.071-.966-1.071h-.064v-.277h3.707v.278h-.108c-.664,0-.919.407-.919,1.071v7.52c0,.685.255,1.071.919,1.071h.108v.278h-3.707V21.9h.064c.688,0,.966-.386.966-1.071Z" transform="translate(-102.534 -7.065)"/>
    </g>
    <g id="Group_756" data-name="Group 756" transform="translate(657 2899)" clip-path="url(#clip-path)">
      <path id="Path_8207" data-name="Path 8207" d="M202.987,17.147v3.77a.507.507,0,0,0,.514.514h2.573a2.354,2.354,0,0,0,2.4-1.992h.3l-.858,2.743h-7.606V21.9h.065c.664,0,.942-.384.942-1.072V13.314c0-.664-.278-1.072-.942-1.072h-.065v-.278h7.369l.172,2.335h-.257c-.065-1.071-.664-1.648-1.436-1.648h-3.17v3.727h2.956c.492,0,.729-.535.729-.965v-.064h.3v2.827h-.3V18.11c0-.471-.237-.963-.729-.963h-2.956Z" transform="translate(-118.288 -7.065)"/>
    </g>
    <g id="Group_757" data-name="Group 757" transform="translate(657 2899)" clip-path="url(#clip-path)">
      <path id="Path_8208" data-name="Path 8208" d="M298.414,20.832c0,.685.278,1.071.942,1.071h.044v.278h-3.641V21.9h.043c.706,0,.984-.386.984-1.071V13.311c0-.664-.278-1.071-.984-1.071h-.043v-.277H299.4v.278h-.044c-.664,0-.942.407-.942,1.071Z" transform="translate(-174.654 -7.065)"/>
    </g>
    <g id="Group_758" data-name="Group 758" transform="translate(657 2899)" clip-path="url(#clip-path)">
      <path id="Path_8209" data-name="Path 8209" d="M312.688,22.116l3.535-8.975c.278-.579.535-.9.942-.9v-.277h-2.356v.278h.149a.521.521,0,0,1,.492.687l-2.522,6.3-2.763-6.3a.508.508,0,0,1,.45-.687h.343v-.278h-3.47v.278c.407,0,.686.3.943.857l3.9,9.019a.217.217,0,0,0,.362,0" transform="translate(-181.581 -7.065)"/>
    </g>
    <g id="Group_759" data-name="Group 759" transform="translate(657 2899)" clip-path="url(#clip-path)">
      <path id="Path_8210" data-name="Path 8210" d="M336.585,17.147v3.77a.507.507,0,0,0,.515.514h2.572a2.387,2.387,0,0,0,2.4-1.992h.3l-.878,2.743H333.91V21.9h.065c.664,0,.921-.384.921-1.072V13.314c0-.664-.257-1.072-.921-1.072h-.065v-.278h7.347l.194,2.335h-.257c-.064-1.071-.685-1.648-1.436-1.648h-3.17v3.727h2.935c.514,0,.75-.535.75-.965v-.064h.3v2.827h-.3V18.11c0-.471-.238-.963-.75-.963h-2.938Z" transform="translate(-197.184 -7.065)"/>
    </g>
    <g id="Group_760" data-name="Group 760" transform="translate(657 2899)" clip-path="url(#clip-path)">
      <path id="Path_8211" data-name="Path 8211" d="M379.978,18.532h-.3V22h.3c.129-.45.514-.664.878-.45a3.577,3.577,0,0,0,3.854-.064,2.679,2.679,0,0,0,.836-3.385c-.6-1.136-2.2-2.016-3.448-2.657-1.436-.813-1.478-2.186-.386-2.891,1.328-.772,3.3.579,3.3,2.526h.255v-3.3h-.255c-.086.491-.45.535-.966.321-1.414-.641-2.57-.621-3.556.278a2.605,2.605,0,0,0,.45,4.221,13.436,13.436,0,0,1,3.107,2.185,1.513,1.513,0,0,1-.363,2.271c-1.369,1.2-3.7-.258-3.7-2.529" transform="translate(-224.172 -6.887)"/>
    </g>
    <g id="Group_761" data-name="Group 761" transform="translate(657 2899)" clip-path="url(#clip-path)">
      <path id="Path_8212" data-name="Path 8212" d="M270.176,11.963h-2.613v.278a1.053,1.053,0,0,1,.921.3c.235.257.386.45.685.793v7.8a.81.81,0,0,1-.9.75h-.108v.3h2.85v-.3h-.064c-.471,0-.943-.257-.943-.75V14.361l6.748,7.819h.214V13.013a.831.831,0,0,1,.919-.772h.067v-.278h-2.828v.278h.085a.812.812,0,0,1,.9.772v5.826l-5.932-6.876Z" transform="translate(-158.004 -7.065)"/>
    </g>
    <g id="Group_762" data-name="Group 762" transform="translate(657 2899)" clip-path="url(#clip-path)">
      <path id="Path_8213" data-name="Path 8213" d="M399.938,20.832c0,.685.278,1.071.943,1.071h.064v.278h-3.687V21.9h.108c.664,0,.921-.386.921-1.071V13.311c0-.664-.257-1.071-.921-1.071h-.108v-.277h3.687v.278h-.064c-.665,0-.943.407-.943,1.071Z" transform="translate(-234.592 -7.065)"/>
    </g>
    <g id="Group_763" data-name="Group 763" transform="translate(657 2899)" clip-path="url(#clip-path)">
      <path id="Path_8214" data-name="Path 8214" d="M436.086,17.8l-3.128-4.778c-.321-.6-.664-.812-1.071-.812v-.3h3.62v.3h-.236a.5.5,0,0,0-.386.749l2.572,3.921,2.335-3.985a.462.462,0,0,0-.322-.685h-.253v-.3h2.507v.3a1.44,1.44,0,0,0-1.157.769l-2.785,4.756v3.084c0,.708.278,1.05.965,1.05h.064v.278h-3.728v-.278h.065c.686,0,.942-.386.942-1.092V17.8Z" transform="translate(-255.042 -7.032)"/>
    </g>
    <g id="Group_764" data-name="Group 764" transform="translate(657 2899)" clip-path="url(#clip-path)">
      <path id="Path_8215" data-name="Path 8215" d="M414.162,20.9c0,.686.278,1.007.942,1.007h.043v.278h-3.641V21.9h.044c.663,0,.983-.321.983-1.007V12.734h-2.055c-.772,0-1.221.536-1.287,1.65h-.236l.085-2.356a.1.1,0,0,1,.064-.064h8.442a.1.1,0,0,1,.064.064l.108,2.356h-.257c-.065-1.114-.471-1.65-1.264-1.65h-2.034Z" transform="translate(-241.5 -7.065)"/>
    </g>
    <g id="Group_765" data-name="Group 765" transform="translate(657 2899)" clip-path="url(#clip-path)">
      <path id="Path_8216" data-name="Path 8216" d="M179.84,67.065c0,.687.278,1.05.921,1.05h.108v.257h-3.687v-.257h.065c.687,0,.942-.407.942-1.071v-7.5c0-.688-.255-1.116-.942-1.116h-.065v-.278H185l.172,2.356h-.235c-.064-1.05-.685-1.65-1.436-1.65H179.84v3.707h2.977c.514,0,.729-.471.729-.965v-.065h.278v2.827h-.278v-.041c0-.492-.216-.985-.729-.985H179.84v3.728Z" transform="translate(-104.631 -34.341)"/>
    </g>
    <g id="Group_766" data-name="Group 766" transform="translate(657 2899)" clip-path="url(#clip-path)">
      <path id="Path_8217" data-name="Path 8217" d="M270.977,63.34v3.77a.534.534,0,0,0,.557.535h2.549a2.4,2.4,0,0,0,2.4-2.013h.278l-.836,2.742h-7.6v-.257h.065c.685,0,.942-.407.942-1.072V59.528c0-.664-.257-1.092-.942-1.092h-.065v-.279h7.347l.172,2.356H275.6c-.043-1.092-.685-1.648-1.457-1.648h-3.17v3.705h2.976c.471,0,.75-.471.75-.965v-.065h.257v2.828H274.7v-.043c0-.494-.279-.986-.75-.986Z" transform="translate(-158.451 -34.343)"/>
    </g>
    <g id="Group_767" data-name="Group 767" transform="translate(657 2899)" clip-path="url(#clip-path)">
      <path id="Path_8218" data-name="Path 8218" d="M249.851,59.14a.662.662,0,0,0-.705-.706h-.281v-.279h2.787v.279h-.322a.631.631,0,0,0-.664.706v5.976c0,1.926-1.478,3.362-3.9,3.362-2.441,0-4.048-1.5-4.048-3.556V59.417a.967.967,0,0,0-.9-.985H241.8v-.279h3.578v.279h-.064a.981.981,0,0,0-.878.985v5.57a2.5,2.5,0,0,0,2.464,2.721,2.7,2.7,0,0,0,2.956-2.592V59.14Z" transform="translate(-142.788 -34.341)"/>
    </g>
    <g id="Group_768" data-name="Group 768" transform="translate(657 2899)" clip-path="url(#clip-path)">
      <path id="Path_8219" data-name="Path 8219" d="M292.952,63.34v3.77a.512.512,0,0,0,.514.535h2.572a2.387,2.387,0,0,0,2.4-2.013h.3l-.878,2.742H290.3v-.257h.043c.664,0,.942-.407.942-1.072V59.528c0-.664-.278-1.092-.942-1.092H290.3v-.279h7.327l.172,2.356h-.236c-.067-1.092-.688-1.648-1.436-1.648h-3.17v3.705h2.934a.865.865,0,0,0,.794-.965v-.065h.255v2.828h-.255v-.043a.884.884,0,0,0-.794-.986h-2.935Z" transform="translate(-171.429 -34.343)"/>
    </g>
    <g id="Group_769" data-name="Group 769" transform="translate(657 2899)" clip-path="url(#clip-path)">
      <path id="Path_8220" data-name="Path 8220" d="M359.973,67a.632.632,0,0,0,.536.641h2.378a2.422,2.422,0,0,0,2.4-2.057h.3l-.834,2.786h-7.436v-.279h.086c.643,0,.921-.407.921-1.091V59.546c0-.685-.278-1.114-.921-1.114h-.086v-.279H361v.279h-.065c-.706,0-.965.428-.965,1.114V67Z" transform="translate(-211.006 -34.341)"/>
    </g>
    <g id="Group_770" data-name="Group 770" transform="translate(657 2899)" clip-path="url(#clip-path)">
      <path id="Path_8221" data-name="Path 8221" d="M338.956,64.746h-.3V68.2h.3a.578.578,0,0,1,.877-.451,3.662,3.662,0,0,0,3.877-.041,2.684,2.684,0,0,0,.835-3.385c-.6-1.156-2.247-2.014-3.448-2.679-1.457-.812-1.521-2.2-.386-2.868,1.285-.794,3.278.534,3.278,2.526h.3V57.956h-.3c-.108.514-.45.579-.943.363a3.014,3.014,0,0,0-3.6.257,2.643,2.643,0,0,0,.494,4.241A12.8,12.8,0,0,1,343.045,65a1.548,1.548,0,0,1-.363,2.271c-1.37,1.18-3.727-.275-3.727-2.526" transform="translate(-199.953 -34.165)"/>
    </g>
    <g id="Group_771" data-name="Group 771" transform="translate(657 2899)" clip-path="url(#clip-path)">
      <path id="Path_8222" data-name="Path 8222" d="M313.415,58.153H310.8v.278c.427,0,.728.067.9.3.255.278.428.45.728.813v7.776a.832.832,0,0,1-.921.772h-.084v.278h2.827v-.278h-.064a.821.821,0,0,1-.922-.772V60.553l6.727,7.819h.214V59.2a.827.827,0,0,1,.9-.772h.086v-.278h-2.806v.278h.065a.867.867,0,0,1,.942.772v5.849l-5.979-6.9Z" transform="translate(-183.538 -34.341)"/>
    </g>
    <g id="Group_772" data-name="Group 772" transform="translate(657 2899)" clip-path="url(#clip-path)">
      <path id="Path_8223" data-name="Path 8223" d="M406.012,58.153H403.4v.278a1.006,1.006,0,0,1,.878.3c.255.278.427.45.728.813v7.776a.832.832,0,0,1-.921.772h-.064v.278h2.806v-.278h-.053c-.494,0-.943-.257-.943-.772V60.553l6.727,7.819h.214V59.2a.827.827,0,0,1,.9-.772h.108v-.278h-2.763v.278a.866.866,0,0,1,.942.772v5.849L406,58.153Z" transform="translate(-238.219 -34.341)"/>
    </g>
    <g id="Group_773" data-name="Group 773" transform="translate(657 2899)" clip-path="url(#clip-path)">
      <path id="Path_8224" data-name="Path 8224" d="M380.587,63.971h3l-1.5-3.456Zm6.064,2.851c.236.557.535.877.941.877h.108v.278h-3.556V67.7h.279a.52.52,0,0,0,.492-.705l-.986-2.271h-3.62l-.965,2.271a.553.553,0,0,0,.579.705h.13v.278h-2.722V67.7h.194c.407,0,.772-.319,1.05-.919l3.77-9.125c.225-.254.347.035.347.035l3.958,9.133Z" transform="translate(-222.825 -33.985)" fill-rule="evenodd"/>
    </g>
    <path id="Path_8225" data-name="Path 8225" d="M434.331,58.928v8.7a3.316,3.316,0,0,0,1.007.129c3.085,0,4.565-1.821,4.565-4.477a4.2,4.2,0,0,0-4.59-4.518,1.566,1.566,0,0,0-.982.169m7.135,4.37a5.128,5.128,0,0,1-5.27,5.119h-4.735V68.14h.085c.664,0,.921-.407.921-1.091V59.593c0-.687-.257-1.115-.921-1.115h-.085V58.2h3.882c6.534-.2,6.123,5.1,6.123,5.1" transform="translate(402.209 2864.635)" fill-rule="evenodd"/>
    <g id="Group_775" data-name="Group 775" transform="translate(657 2899)" clip-path="url(#clip-path)">
      <path id="Path_8226" data-name="Path 8226" d="M147.1,57.423c.011,3.438,1.59,5.822,3.834,5.785,2.1,0,3.834-2.11,3.834-5.879-.08-4.956-2.624-5.625-3.834-5.688-2.832.142-3.844,2.983-3.834,5.782m3.834-6.576c3.754.053,6.127,2.935,6.127,6.575,0,3.6-2.4,6.556-6.127,6.556s-6.125-2.958-6.125-6.556c.322-6.87,6.125-6.575,6.125-6.575" transform="translate(-85.513 -30.025)" fill-rule="evenodd"/>
    </g>
    <g id="Group_776" data-name="Group 776" transform="translate(657 2899)" clip-path="url(#clip-path)">
      <path id="Path_8227" data-name="Path 8227" d="M215.95,52.16s-3.733-.177-3.781,5.785c0,3.792,1.692,5.783,3.834,5.783,2.079,0,3.813-1.992,3.813-5.783s-1.788-5.785-3.866-5.785m0-.792a6.286,6.286,0,0,1,6.2,6.668,6.181,6.181,0,0,1-4.134,6.185,5,5,0,0,0,4.179,2.827v.343a10,10,0,0,1-7.434-2.956c-3.041-.58-4.927-3.278-4.927-6.491,0-3.625,2.376-6.55,6.115-6.576" transform="translate(-123.914 -30.335)" fill-rule="evenodd"/>
    </g>
  </g>
</svg>
