<svg xmlns="http://www.w3.org/2000/svg" xmlns:xlink="http://www.w3.org/1999/xlink" width="167.702" height="58.134" viewBox="0 0 167.702 58.134">
  <defs>
    <clipPath id="clip-path">
      <rect id="Rectangle_1135" data-name="Rectangle 1135" width="167.702" height="58.08"/>
    </clipPath>
    <clipPath id="clip-path-25">
      <rect id="Rectangle_1161" data-name="Rectangle 1161" width="167.702" height="58.08" transform="translate(0)"/>
    </clipPath>
    <clipPath id="clip-path-26">
      <rect id="Rectangle_1163" data-name="Rectangle 1163" width="167.702" height="58.08" transform="translate(0 0)"/>
    </clipPath>
  </defs>
  <g id="university-of-sydney" transform="translate(0.002 0.087)">
    <path id="Path_8141" data-name="Path 8141" d="M164.784,68.171h.53v.308H170.7v-.308h.53v1.743h-.53v-.883h-2.211v6.325H169.6v.409h-3.181v-.409h1.1V69.031h-2.2v.883h-.53Z" transform="translate(-99.607 -56.04)"/>
    <path id="Path_8142" data-name="Path 8142" d="M180.811,76.038h-2.627v-.409h.832V69.159h-.832v-.408h2.627v.408h-.824V72.1h4.136V69.159H183.3v-.408h2.627v.408h-.84v6.471h.84v.409H183.3v-.409h.824V72.592h-4.136v3.037h.824Z" transform="translate(-105.901 -56.313)"/>
    <path id="Path_8143" data-name="Path 8143" d="M198.928,68.171h.506v1.755h-.489v-.939h-2.619v2.825h2.088v-.826l.506-.011v2.175l-.506.011v-.85h-2.088v2.96h2.716V74.3h.506v1.468h-5.025v-.409h.832V68.886h-.832v-.408h4.405Z" transform="translate(-113.577 -56.04)"/>
    <g id="Group_722" data-name="Group 722" transform="translate(-0.002 -0.087)">
      <g id="Group_684" data-name="Group 684" transform="translate(0 0.054)" clip-path="url(#clip-path)">
        <path id="Path_8144" data-name="Path 8144" d="M218.1,69.157h-.828v4.206a2.49,2.49,0,0,1-1.335,2.441,3.336,3.336,0,0,1-1.536.374,2.577,2.577,0,0,1-2.781-2.506V69.156h-.828v-.41h2.628v.41h-.828v4.173a1.981,1.981,0,0,0,2.009,2.208,2.053,2.053,0,0,0,2.107-2.22V69.156h-.826v-.41H218.1v.411Z" transform="translate(-121.215 -56.278)"/>
      </g>
      <g id="Group_685" data-name="Group 685" transform="translate(0 0.054)" clip-path="url(#clip-path)">
        <path id="Path_8145" data-name="Path 8145" d="M226.783,75.629v-6.05l-.294-.42h-.767v-.407h1.607l4.038,5.542V69.159h-.84v-.407h2.219v.407h-.824v7h-.343l-4.242-5.829v5.3h.84v.41h-2.227v-.41Z" transform="translate(-128.232 -56.281)"/>
      </g>
      <g id="Group_686" data-name="Group 686" transform="translate(0 0.054)" clip-path="url(#clip-path)">
        <path id="Path_8146" data-name="Path 8146" d="M243.119,69.159h-.832v6.471h.832v.409h-2.627v-.409h.824V69.159h-.824v-.408h2.627Z" transform="translate(-135.17 -56.28)"/>
      </g>
      <g id="Group_687" data-name="Group 687" transform="translate(0 0.054)" clip-path="url(#clip-path)">
        <path id="Path_8147" data-name="Path 8147" d="M250.519,74.582l2.121-5.422h-.734v-.407H253.8v.407h-.555l-2.757,7.067h-.375l-2.782-7.067h-.653v-.407h2.741v.407h-1.044Z" transform="translate(-138.075 -56.281)"/>
      </g>
      <g id="Group_688" data-name="Group 688" transform="translate(0 0.054)" clip-path="url(#clip-path)">
        <path id="Path_8148" data-name="Path 8148" d="M265.759,68.171h.506v1.755h-.5v-.939h-2.619v2.825h2.088v-.826l.506-.011v2.175l-.506.011v-.85h-2.088v2.96h2.716V74.3h.514v1.468h-5.025v-.409h.824V68.886h-.824v-.408h4.405Z" transform="translate(-144.969 -56.008)"/>
      </g>
      <g id="Group_689" data-name="Group 689" transform="translate(0 0.054)" clip-path="url(#clip-path)">
        <path id="Path_8149" data-name="Path 8149" d="M279.208,76.038h-.938c-.651,0-.773-.067-1.139-.651l-1.645-2.617h-.861v2.858h.828v.409h-2.627v-.408h.827v-6.47h-.827v-.409h3.069c1.071,0,1.677.3,2.008.983a2.24,2.24,0,0,1,.223.983,1.784,1.784,0,0,1-1.657,1.91l1.589,2.451c.264.409.442.541.719.541h.43v.419Zm-4.582-3.776h1.059a1.409,1.409,0,0,0,1.426-1.525,1.325,1.325,0,0,0-1.448-1.479h-1.037v3Z" transform="translate(-150.359 -56.28)"/>
      </g>
      <g id="Group_690" data-name="Group 690" transform="translate(0 0.054)" clip-path="url(#clip-path)">
        <path id="Path_8150" data-name="Path 8150" d="M287.035,75.941h-.52V73.954h.52v.871a2.306,2.306,0,0,0,1.457.564c.883,0,1.479-.465,1.479-1.159,0-.63-.43-1.094-1.621-1.713-1.392-.729-1.866-1.281-1.866-2.185a2,2,0,0,1,2.175-1.911,2.448,2.448,0,0,1,1.312.31v-.4h.508V70.22h-.508v-.782a2.046,2.046,0,0,0-1.281-.486,1.118,1.118,0,0,0-1.235,1.136c0,.564.321.884,1.7,1.68s1.777,1.28,1.777,2.185a2.079,2.079,0,0,1-2.2,2.03,2.825,2.825,0,0,1-1.7-.5v.454Z" transform="translate(-156.775 -56.084)"/>
      </g>
      <g id="Group_691" data-name="Group 691" transform="translate(0 0.054)" clip-path="url(#clip-path)">
        <path id="Path_8151" data-name="Path 8151" d="M299.411,69.159h-.832v6.471h.832v.409h-2.627v-.409h.824V69.159h-.824v-.408h2.627Z" transform="translate(-161.613 -56.28)"/>
      </g>
      <g id="Group_692" data-name="Group 692" transform="translate(0 0.054)" clip-path="url(#clip-path)">
        <path id="Path_8152" data-name="Path 8152" d="M303.092,68.171h.53v.308h5.384v-.308h.53v1.743h-.53v-.883H306.8v6.325H307.9v.409h-3.181v-.409h1.1V69.031h-2.2v.883h-.53Z" transform="translate(-164.577 -56.008)"/>
      </g>
      <g id="Group_693" data-name="Group 693" transform="translate(0 0.054)" clip-path="url(#clip-path)">
        <path id="Path_8153" data-name="Path 8153" d="M319.14,68.751v.408h-1l1.893,2.894,1.762-2.894h-1.012v-.408h2.211v.408h-.571L320.3,72.615v3.014h.84v.409h-2.627v-.409h.824V72.682l-2.284-3.523h-.636v-.408Z" transform="translate(-170.835 -56.28)"/>
      </g>
      <g id="Group_694" data-name="Group 694" transform="translate(0 0.054)" clip-path="url(#clip-path)">
        <path id="Path_8154" data-name="Path 8154" d="M334.184,72.287a3.557,3.557,0,1,1,3.565,3.775,3.7,3.7,0,0,1-3.565-3.775m1.093-.01c0,1.866,1.038,3.212,2.472,3.212,1.413,0,2.442-1.358,2.442-3.212s-1.029-3.2-2.429-3.2c-1.446,0-2.484,1.324-2.484,3.2" transform="translate(-179.182 -56.162)"/>
      </g>
      <g id="Group_695" data-name="Group 695" transform="translate(0 0.054)" clip-path="url(#clip-path)">
        <path id="Path_8155" data-name="Path 8155" d="M353.266,68.171h.506v1.755h-.5v-.939h-2.619v2.825h2.088v-.826l.506-.011v2.175l-.506.011v-.85h-2.088v3.047h.832v.409h-2.627v-.409h.824V68.886h-.824v-.408h4.405Z" transform="translate(-186.077 -56.008)"/>
      </g>
      <g id="Group_696" data-name="Group 696" transform="translate(0 0.054)" clip-path="url(#clip-path)">
        <path id="Path_8156" data-name="Path 8156" d="M166.08,109.2h-1.368v-5.237h1.368v2.3c1.775,1.193,2.561,1.485,3.841,1.485,2.328,0,3.9-1.222,3.9-3.056,0-1.658-1.135-2.88-4.277-4.51-3.666-1.919-4.917-3.376-4.917-5.773,0-2.881,2.445-5.034,5.731-5.034a6.483,6.483,0,0,1,3.463.815V89.143h1.339v4.974H173.82V92.052a5.418,5.418,0,0,0-3.376-1.278,2.945,2.945,0,0,0-3.257,3c0,1.485.842,2.335,4.478,4.436s4.686,3.376,4.686,5.762a5.487,5.487,0,0,1-5.79,5.354,7.458,7.458,0,0,1-4.481-1.308V109.2Z" transform="translate(-99.531 -65.86)"/>
      </g>
      <g id="Group_697" data-name="Group 697" transform="translate(0 0.054)" clip-path="url(#clip-path)">
        <path id="Path_8157" data-name="Path 8157" d="M194.91,90.238v1.077h-2.643l5,7.638,4.625-7.638h-2.651V90.238h5.824v1.077h-1.517l-5.58,9.122v7.944h2.211v1.075h-6.926v-1.075h2.178v-7.769l-6.02-9.3h-1.689V90.238Z" transform="translate(-110.381 -66.374)"/>
      </g>
      <g id="Group_698" data-name="Group 698" transform="translate(0 0.054)" clip-path="url(#clip-path)">
        <path id="Path_8158" data-name="Path 8158" d="M223.169,109.456V108.38h2.182V91.315h-2.182V90.238h8.583a9.609,9.609,0,0,1-.029,19.217ZM227.913,108H231.4c3.985,0,7.011-3.52,6.981-8.144,0-4.5-3.084-8.134-6.923-8.134h-3.55Z" transform="translate(-127.032 -66.374)"/>
      </g>
      <g id="Group_699" data-name="Group 699" transform="translate(0 0.054)" clip-path="url(#clip-path)">
        <path id="Path_8159" data-name="Path 8159" d="M260.967,108.38V92.422l-.791-1.1h-2.007V90.24h4.217l10.654,14.62V91.318h-2.211V90.24h5.849v1.078h-2.186v18.46h-.9L262.419,94.4v13.98h2.211v1.077h-5.882V108.38Z" transform="translate(-143.473 -66.375)"/>
      </g>
      <g id="Group_700" data-name="Group 700" transform="translate(0 0.054)" clip-path="url(#clip-path)">
        <path id="Path_8160" data-name="Path 8160" d="M308.408,88.7h1.338V93.33h-1.305V90.855h-6.9v7.463h5.5V96.131l1.338-.029v5.736l-1.338.029V99.627h-5.5v7.8H308.7v-2.561h1.338v3.87H296.8v-1.075h2.178V90.594H296.8V89.517h11.608Z" transform="translate(-161.621 -65.653)"/>
      </g>
      <g id="Group_701" data-name="Group 701" transform="translate(0 0.054)" clip-path="url(#clip-path)">
        <path id="Path_8161" data-name="Path 8161" d="M332.617,90.238v1.077h-2.643l5,7.638,4.625-7.638h-2.643V90.238h5.816v1.077h-1.509l-5.588,9.122v7.944h2.211v1.075h-6.926v-1.075h2.186v-7.769l-6.028-9.3h-1.689V90.238Z" transform="translate(-175.07 -66.374)"/>
      </g>
      <g id="Group_702" data-name="Group 702" transform="translate(0 0.054)" clip-path="url(#clip-path)">
        <path id="Path_8162" data-name="Path 8162" d="M96.239,53.515V67.01c0,16.358-11.14,33.16-27.2,36.3-15.483-2.939-27.182-19.945-27.182-36.3V48.862a120.53,120.53,0,0,1,27.187-3.632,98.258,98.258,0,0,1,27.191,3.632v4.652Z" transform="translate(-41.861 -45.232)" fill="#fbb500"/>
      </g>
      <g id="Group_703" data-name="Group 703" transform="translate(0 0.054)" clip-path="url(#clip-path)">
        <path id="Path_8163" data-name="Path 8163" d="M72.62,100.589c13.035-.014,23.145-12.106,23.147-25.422V52.243l-.34-.1S83.681,48.5,72.615,48.494s-22.79,3.641-22.81,3.646l-.34.1V75.167c0,13.316,10.112,25.408,23.147,25.422" transform="translate(-45.432 -46.764)" fill="#fff"/>
      </g>
      <g id="Group_784" data-name="Group 784" transform="translate(5.343 23.831)">
        <path id="Path_8164" data-name="Path 8164" d="M79.044,118.441v-9.017H89.333a1.812,1.812,0,0,1,1.47.759,26,26,0,0,0,4.811-11.3H79.044V90.215c-1.742-.088-3.513-.141-5.267-.141s-3.52.052-5.258.139v8.672H51.937a25.986,25.986,0,0,0,4.819,11.3,1.811,1.811,0,0,1,1.476-.764H68.519v9.021a19.747,19.747,0,0,0,5.254.717v.075h.008v-.075a19.622,19.622,0,0,0,5.263-.72" transform="translate(-51.937 -90.074)" fill="#004485"/>
      </g>
      <g id="Group_705" data-name="Group 705" transform="translate(0 0.054)" clip-path="url(#clip-path)">
        <path id="Path_8165" data-name="Path 8165" d="M112.517,109.842l2.248,1.066.8-2.325.837,2.336,2.208-1.078-1.065,2.247,2.324.8-2.34.834,1.081,2.212-2.247-1.065-.8,2.327-.835-2.34-2.211,1.078,1.068-2.247-2.327-.8,2.337-.835Z" transform="translate(-74.461 -74.992)" fill="#fbb500"/>
      </g>
      <g id="Group_706" data-name="Group 706" transform="translate(0 0.054)" clip-path="url(#clip-path)">
        <path id="Path_8166" data-name="Path 8166" d="M66.108,109.842l-2.245,1.066-.8-2.325-.834,2.336-2.211-1.078,1.066,2.247-2.325.8,2.343.834-1.084,2.212,2.248-1.065.8,2.327.833-2.34,2.212,1.078-1.067-2.247,2.326-.8-2.336-.835Z" transform="translate(-49.798 -74.992)" fill="#fbb500"/>
      </g>
      <g id="Group_707" data-name="Group 707" transform="translate(0 0.054)" clip-path="url(#clip-path)">
        <path id="Path_8167" data-name="Path 8167" d="M86.277,126.5l2.242,1.065.8-2.327.835,2.34,2.2-1.078L91.3,128.745l2.325.8-2.338.836,1.076,2.212-2.242-1.064-.8,2.331-.835-2.348-2.21,1.08,1.066-2.246-2.327-.8,2.338-.835Z" transform="translate(-62.133 -82.815)" fill="#fbb500"/>
      </g>
      <g id="Group_708" data-name="Group 708" transform="translate(0 0.054)" clip-path="url(#clip-path)">
        <path id="Path_8168" data-name="Path 8168" d="M86.28,94.32l2.24,1.065.8-2.327.831,2.341,2.211-1.078L91.3,96.564l2.328.8-2.34.836,1.078,2.211-2.242-1.064-.8,2.325-.835-2.338-2.207,1.077,1.061-2.247-2.325-.8,2.338-.834Z" transform="translate(-62.133 -67.698)" fill="#fbb500"/>
      </g>
      <g id="Group_709" data-name="Group 709" transform="translate(0 0.054)" clip-path="url(#clip-path-25)">
        <rect id="Rectangle_1160" data-name="Rectangle 1160" width="0.975" height="0.719" transform="translate(34.502 34.328)" fill="#fbb500"/>
      </g>
      <g id="Group_710" data-name="Group 710" transform="translate(0 0.054)" clip-path="url(#clip-path-26)">
        <rect id="Rectangle_1162" data-name="Rectangle 1162" width="0.975" height="0.715" transform="translate(34.502 36.243)" fill="#fbb500"/>
      </g>
      <g id="Group_711" data-name="Group 711" transform="translate(0 0.054)" clip-path="url(#clip-path-25)">
        <rect id="Rectangle_1164" data-name="Rectangle 1164" width="0.975" height="0.719" transform="translate(34.502 38.152)" fill="#fbb500"/>
      </g>
      <g id="Group_712" data-name="Group 712" transform="translate(0 0.054)" clip-path="url(#clip-path-26)">
        <rect id="Rectangle_1166" data-name="Rectangle 1166" width="0.975" height="0.714" transform="translate(34.502 40.066)" fill="#fbb500"/>
      </g>
      <g id="Group_713" data-name="Group 713" transform="translate(0)" clip-path="url(#clip-path)">
        <path id="Path_8169" data-name="Path 8169" d="M95.981,109.14a1.963,1.963,0,0,0-.268,0,1.723,1.723,0,0,0-1.752,1.738v5.778a1.764,1.764,0,0,1,1.35-.624l5.01,0V109.14Zm3.368,5.634H95.061v-.649h4.288Zm0-1.778H95.061v-.651h4.288Zm0-1.778H95.061v-.651h4.288Z" transform="translate(-66.334 -75.251)" fill="#fff"/>
      </g>
      <g id="Group_714" data-name="Group 714" transform="translate(0 0.054)" clip-path="url(#clip-path)">
        <rect id="Rectangle_1169" data-name="Rectangle 1169" width="0.975" height="0.719" transform="translate(18.889 34.328)" fill="#fbb500"/>
      </g>
      <g id="Group_715" data-name="Group 715" transform="translate(0 0.054)" clip-path="url(#clip-path-26)">
        <rect id="Rectangle_1171" data-name="Rectangle 1171" width="0.975" height="0.715" transform="translate(18.889 36.243)" fill="#fbb500"/>
      </g>
      <g id="Group_716" data-name="Group 716" transform="translate(0 0.054)" clip-path="url(#clip-path)">
        <rect id="Rectangle_1173" data-name="Rectangle 1173" width="0.975" height="0.719" transform="translate(18.889 38.152)" fill="#fbb500"/>
      </g>
      <g id="Group_717" data-name="Group 717" transform="translate(0 0.054)" clip-path="url(#clip-path-26)">
        <rect id="Rectangle_1175" data-name="Rectangle 1175" width="0.975" height="0.714" transform="translate(18.889 40.066)" fill="#fbb500"/>
      </g>
      <g id="Group_718" data-name="Group 718" transform="translate(0 0.054)" clip-path="url(#clip-path)">
        <path id="Path_8170" data-name="Path 8170" d="M80.3,109.14v6.895l5.011,0a1.762,1.762,0,0,1,1.349.624v-5.778A1.723,1.723,0,0,0,84.9,109.14a1.927,1.927,0,0,0-.266,0Zm.969,4.983h4.288v.649H81.268Zm0-1.778h4.288V113H81.268Zm0-1.777h4.288v.651H81.268Z" transform="translate(-59.917 -75.251)" fill="#fff"/>
      </g>
      <g id="Group_719" data-name="Group 719" transform="translate(0 0.054)" clip-path="url(#clip-path)">
        <path id="Path_8171" data-name="Path 8171" d="M73.464,70.433A154.018,154.018,0,0,1,95.657,72.37V53.807c-.33-.1-.892-.258-1.647-.459-1.26-.338-3.059-.786-5.2-1.239a77.222,77.222,0,0,0-15.35-1.8,85.809,85.809,0,0,0-20.548,3.041c-.755.2-1.317.365-1.644.459V72.369a154.4,154.4,0,0,1,22.192-1.936" transform="translate(-46.281 -47.616)" fill="#d4002a"/>
      </g>
      <g id="Group_720" data-name="Group 720" transform="translate(0 0.054)" clip-path="url(#clip-path)">
        <path id="Path_8172" data-name="Path 8172" d="M88.406,67.442a2.437,2.437,0,0,1-1.748.538.743.743,0,0,0-.645.2.868.868,0,0,0-.1.188.687.687,0,0,0,.115.533c.1.135.06.223-.086.257a.989.989,0,0,1-.715-.141c-.166-.08-.213.022-.235.1-.063.185.057.411.3.576.126.111.1.219-.095.289-.332.117-.631-.037-1.118-.306-.287-.16-.508-.186-.7.042-.109.127-.1.244-.037.31.191.188.305.565-.169,1.161-.157.2-.325-.348-.469-.284a1.118,1.118,0,0,1-1.378-.365c-.044-.055-.135-.073-.246,0-.324.216-1.016.574-1.285-.051-.042-.09-.423.143-.418-.036a1.275,1.275,0,0,1,1.295-1.262c.117-.012.14-.069.078-.163a.916.916,0,0,1-.237-.8c.071-.229-.516-.282-.274-.4,1.183-.59,1.844.54,2.049.662a2.07,2.07,0,0,0,2.075-1.143c.04-.164-.359-.237-.757-.337-.073-.017-.113-.109.018-.214.937-.7,1.688-1.6,3.382-1.77a.261.261,0,0,1,.294.232,2.524,2.524,0,0,0,.215.76,2.912,2.912,0,0,0,.837,1.079.224.224,0,0,1,.048.347m6.785-2.385c1.242.006.02,1.029-.043,1.328-.044.218.156.414.351.527.148.077.152.171.042.269a1,1,0,0,1-.706.2c-.181,0-.179.117-.165.195.025.191.24.337.537.372.161.042.188.149.047.3-.247.257-.578.257-1.137.238-.527-.019-.947.621-.638.888.208.179.635.578.268,1.656-.117.327-.316-.3-.484-.2a.789.789,0,0,1-1.015-.3c-.086-.1-.162-.1-.219,0a1.037,1.037,0,0,1-1.563.341c-.2-.108-.617.261-.64.136a1.272,1.272,0,0,1,.534-1.375c.031-.026.153-.19-.052-.184-.315-.016-.7-.119-.739-.5-.007-.082-.4-.063-.379-.172.092-.531,1.26-.915,2.064-.383.68.451,1.535-1.083.921-1.8-.444-.517-3.042.931-3.926-.951-.355-.758.091-1.4-.271-1.456a4.55,4.55,0,0,0-3.807,1.053A6.285,6.285,0,0,1,77,65.806c-.122-.038-.242.06-.189.184a.882.882,0,0,1-.082.839,4.2,4.2,0,0,1-1.615,1.034,1.325,1.325,0,0,0-1.018,1.8c.04.134-.008.214-.148.189a1.952,1.952,0,0,1-1.506-1.091c-.034-.089-.123-.092-.231-.016a.784.784,0,0,0-.2,1.06c.043.086.019.17-.095.183-.441.053-.755-.459-1.134-.423a1.727,1.727,0,0,0-.694.324c-.077.049-.087.174-.041.315.482,1.43-.309,1.477-.356,1.453s-.024-.27-.255-.307a.888.888,0,0,1-1.039-.837c-.016-.122-.063-.163-.146-.108-.294.206-1.018.608-1.472.016-.066-.086-.282,0-.4.054-.094.04-.1-.115-.094-.163a1.529,1.529,0,0,1,.91-1.325c.111-.051.123-.112.034-.178-.246-.183-.679-.576-.542-1,.024-.08-.361-.233-.265-.3.891-.647,2.037.427,2.183.543s.963.148,3.031-1.016a8.056,8.056,0,0,0,2.378-1.815.391.391,0,0,1,.274-.156,3.51,3.51,0,0,0,2.3-.719.186.186,0,0,1,.261-.015c1.182.823,1.793-1,2.036-1.832.032-.17.068-.308.247-.317,4.355.209,12.61.179,12.61.179s1.089.086,1.031-.59c-.086-1.084-4.588-1.062-7.95-.6a9.483,9.483,0,0,1-4.04-.141,1.876,1.876,0,0,1-.981-.784,1.456,1.456,0,0,1-.116-.986,2.4,2.4,0,0,1,.292-.646c.861-1.331,2.854-1.434,3.473-1.434.119,0,.194-.051.209-.138A1.218,1.218,0,0,1,84.8,55.979a1.9,1.9,0,0,0,.623-.172c.1-.045.162-.019.144.068a.65.65,0,0,1-.2.359c-.587.5-.5.734-.43.8a.1.1,0,0,0,.138-.026c1.775-1.547,2.809-.522,3.125-.188.051.06.066.153-.037.179-1.206.271-1.67,1.347-4.133,1.173-.3-.02-2.316-.121-2.957.793-.369.531-.112,1.027.976,1.267a17.885,17.885,0,0,0,3.663-.173c.89-.073,4.768-.558,6.8.027.858.246,2.105.936,1.857,2.238a1.689,1.689,0,0,1-.952,1.145s-2.23,1.57,1.773,1.587M66.078,63.04c-.347-.305.409-2.034-1.258-2.454-.261-.015.113.31.02.388-.485.4-.358.561-.387.8-.01.12-.136.108-.2.085a1.569,1.569,0,0,0-2.035.042c-.153.14.307.168.294.248a.918.918,0,0,0,.525,1.009.146.146,0,0,1,.038.219,1.03,1.03,0,0,0-.354.468c-.033.159-.595.1-.423.279a1.441,1.441,0,0,0,2.079.111c.244-.244,1.264.037,1.106.559-.2.663-.146.989.02.871a1.214,1.214,0,0,1,.771-.285c.069,0,.267.045.188.2a1.37,1.37,0,0,0-.136,1.011c.051.183.176.139.246.069a1.38,1.38,0,0,1,1.733-.282c.624.4,2.391.964,4.71-1.251.069-.064.073-.321-.131-.244a2.806,2.806,0,0,1-2.516-.289,5.221,5.221,0,0,0-.668-.237,9.429,9.429,0,0,1-3.624-1.326m19.331-4.5a3.009,3.009,0,0,0,1.676-.619,1.271,1.271,0,0,1,1.124.133.094.094,0,0,1-.055.166,1.294,1.294,0,0,0-.482.2c-.363.242-1.811.844-2.262.12M74.5,63.8c-.125.334-.595.223-.846.428a.138.138,0,0,1-.126.007c-.248-.212-.715-.108-.866-.472a.068.068,0,0,1,.055-.1,1.332,1.332,0,0,0,.839-.433.078.078,0,0,1,.122.013,1.319,1.319,0,0,0,.766.42c.038.006.091.038.056.135M71.536,57.8a.533.533,0,0,0-.365-.146.526.526,0,0,0-.525.528.54.54,0,0,0,.195.414.089.089,0,0,0,.109-.007,2.733,2.733,0,0,1,.582-.672c.022-.019.044-.087,0-.117m.38,4.58a6.539,6.539,0,0,0-.6-1.534c-.349-.608.171-2.394,1.009-2.6a.278.278,0,0,0,.132-.445,1.991,1.991,0,0,0-1.282-.783,1.182,1.182,0,0,0-1.18,1.185c0,.749.573.867.534,1.074a2.5,2.5,0,0,0,.077,1.987,7.248,7.248,0,0,1,.51,1.384,1.492,1.492,0,0,0,.713,1.021c.184.108.095.25.172.405a.525.525,0,0,0,.143.166c.078.06.017.073-.046.064a2.156,2.156,0,0,1-1.752-1.042c-.184-.4-.782,1-1.136.334a7.329,7.329,0,0,1-.719-1.958c-.091-.395-.34.281-.435.045a3.894,3.894,0,0,1-.3-1.419,3.787,3.787,0,0,1,3.013-3.621c.334-.077-.388-.633.083-.608a5.562,5.562,0,0,1,2.09.395c.146.063.236-.216.528-.4a.132.132,0,0,1,.144,0c.3.187.409.458.555.395a5.676,5.676,0,0,1,2.071-.387c.489-.03-.251.531.085.608a3.786,3.786,0,0,1,3.014,3.621,3.871,3.871,0,0,1-.3,1.419c-.093.236-.34-.44-.433-.045a7.469,7.469,0,0,1-.718,1.958c-.36.668-.954-.731-1.139-.334a2.115,2.115,0,0,1-1.666,1.031c-.062.007-.12,0-.045-.073a.671.671,0,0,0,.2-.4c0-.026-.012-.066.047-.091a1.484,1.484,0,0,0,.816-1.044,8.241,8.241,0,0,1,.517-1.421c.467-.835-.1-1.847.045-2.072a1.182,1.182,0,1,0-1.53-1.773l-.033.032a4.375,4.375,0,0,0-.307.359.277.277,0,0,0,.1.436c.808.21,1.333,2.027,1,2.617a6.2,6.2,0,0,0-.592,1.525.658.658,0,0,1-1.276.232.284.284,0,0,0,.015-.029c.224-.139.715-.435.715-.741l-.1-1A.656.656,0,0,0,75.3,60.2a.94.94,0,0,0,.1-.078c.135-.123.223-.454-.064-.407-.409.077-.872.061-1.321.186a.167.167,0,0,0-.115.127c-.02.086.243,1.289.3,1.555a.041.041,0,0,1-.03.049c-.183-.016-.508-.032-.588-.032s-.4.02-.586.035c-.02,0-.047-.024-.038-.049.06-.284.323-1.479.323-1.479a.219.219,0,0,0-.028-.144,7.458,7.458,0,0,0-1.416-.244.177.177,0,0,0-.174.069c-.117.166.086.35.216.427a.659.659,0,0,0,.633.631c.006,0,.013.018.018.02-.012.066-.112.986-.112.991,0,.319.484.588.724.729a.164.164,0,0,1,.033.06.692.692,0,0,1-.608.4.658.658,0,0,1-.657-.662M75.7,57.853a2.549,2.549,0,0,1,.551.7c.011.028.069.061.1.032a.527.527,0,0,0-.334-.935.5.5,0,0,0-.31.1.092.092,0,0,0-.008.1" transform="translate(-51.41 -50.19)" fill="#ffdd92" fill-rule="evenodd"/>
      </g>
      <g id="Group_721" data-name="Group 721" transform="translate(0 0.054)" clip-path="url(#clip-path)">
        <path id="Path_8173" data-name="Path 8173" d="M95.427,52.141S83.681,48.5,72.615,48.5,49.824,52.134,49.8,52.141l-.339.1V75.167c0,13.316,10.112,25.408,23.147,25.422v-.96a21.043,21.043,0,0,1-15.744-7.406,25.9,25.9,0,0,1-6.444-17.056V72.493c.928-.152,3.434-.545,6.8-.94a135.89,135.89,0,0,1,15.392-1.011,136.173,136.173,0,0,1,15.392,1.011c3.365.395,5.871.789,6.8.94v2.674a25.92,25.92,0,0,1-6.444,17.056,21.046,21.046,0,0,1-15.744,7.406v.96c13.034-.014,23.145-12.106,23.146-25.422V52.244l-.339-.1ZM72.614,69.583A153.5,153.5,0,0,0,50.422,71.52V52.954c.327-.1.888-.257,1.644-.457a85.725,85.725,0,0,1,20.548-3.042,77.288,77.288,0,0,1,15.35,1.8c2.137.453,3.935.9,5.2,1.242.755.2,1.316.361,1.647.457V71.519a153.686,153.686,0,0,0-22.193-1.936" transform="translate(-45.432 -46.765)" fill="#fff"/>
      </g>
    </g>
  </g>
</svg>
